<svg width="17" height="17" viewBox="0 0 17 17" fill="none" xmlns="http://www.w3.org/2000/svg">
<g id="Group 906">
<path id="Vector" d="M8.5 0C3.808 0 0 3.808 0 8.5C0 13.192 3.808 17 8.5 17C13.192 17 17 13.192 17 8.5C17 3.808 13.192 0 8.5 0ZM8.5 3.4C10.1405 3.4 11.475 4.7345 11.475 6.375C11.475 8.0155 10.1405 9.35 8.5 9.35C6.8595 9.35 5.525 8.0155 5.525 6.375C5.525 4.7345 6.8595 3.4 8.5 3.4ZM8.5 15.3C6.7745 15.3 4.7345 14.603 3.281 12.852C4.76986 11.6839 6.60758 11.049 8.5 11.049C10.3924 11.049 12.2301 11.6839 13.719 12.852C12.2655 14.603 10.2255 15.3 8.5 15.3Z" fill="#FDDB00"/>
</g>
</svg>
