<svg width="17" height="19" viewBox="0 0 17 19" fill="none" xmlns="http://www.w3.org/2000/svg">
<g id="Group 907">
<path id="Vector" d="M13.7619 3.39282H17V6.10711H13.7619V3.39282ZM13.7619 7.46425H17V10.1785H13.7619V7.46425ZM8.90479 3.39282H12.1429V6.10711H8.90479V3.39282ZM8.90479 7.46425H12.1429V10.1785H8.90479V7.46425Z" fill="#FDDB00"/>
<path id="Vector_2" d="M6.88091 16.2857C7.55154 16.2857 8.0952 15.83 8.0952 15.2679C8.0952 14.7057 7.55154 14.25 6.88091 14.25C6.21028 14.25 5.66663 14.7057 5.66663 15.2679C5.66663 15.83 6.21028 16.2857 6.88091 16.2857Z" fill="#FDDB00"/>
<path id="Vector_3" d="M12.1429 19H1.61905C1.18978 18.9996 0.778219 18.8565 0.474682 18.6021C0.171144 18.3477 0.000428624 18.0027 0 17.6429V1.35714C0.000428624 0.997316 0.171144 0.652331 0.474682 0.397895C0.778219 0.143459 1.18978 0.000359288 1.61905 0H12.1429V1.35714H1.61905V17.6429H12.1429V12.2143H13.7619V17.6429C13.7615 18.0027 13.5908 18.3477 13.2872 18.6021C12.9837 18.8565 12.5721 18.9996 12.1429 19Z" fill="#FDDB00"/>
</g>
</svg>
