<svg width="21" height="21" viewBox="0 0 21 21" fill="none" xmlns="http://www.w3.org/2000/svg">
<g id="Icon / 24 px / Calendar ">
<g id="Icon">
<path id="Vector" d="M11.8125 11.4841L13.125 10.4998V14.7654M7.54688 10.4997H9.84375L8.53125 12.1404C8.74706 12.1404 8.95954 12.1936 9.14987 12.2953C9.3402 12.397 9.50252 12.5441 9.62244 12.7235C9.74237 12.9029 9.8162 13.1091 9.8374 13.3239C9.8586 13.5387 9.82652 13.7553 9.744 13.9548C9.66147 14.1542 9.53105 14.3301 9.36428 14.4671C9.19751 14.6041 8.99954 14.6978 8.78789 14.74C8.57625 14.7822 8.35747 14.7716 8.15092 14.709C7.94437 14.6465 7.75643 14.534 7.60374 14.3815M3.28125 7.21875H17.7188M14.4375 1.96875V4.59375M6.5625 1.96875V4.59375M3.9375 3.28125H17.0625C17.4249 3.28125 17.7188 3.57506 17.7188 3.9375V17.0625C17.7188 17.4249 17.4249 17.7188 17.0625 17.7188H3.9375C3.57506 17.7188 3.28125 17.4249 3.28125 17.0625V3.9375C3.28125 3.57506 3.57506 3.28125 3.9375 3.28125Z" stroke="#021794" stroke-linecap="round" stroke-linejoin="round"/>
</g>
</g>
</svg>
