<svg width="20" height="21" viewBox="0 0 20 21" fill="none" xmlns="http://www.w3.org/2000/svg">
<path id="Vector" d="M19.3617 0.5H5.74468C5.57539 0.5 5.41304 0.567249 5.29334 0.686953C5.17363 0.806657 5.10638 0.969011 5.10638 1.1383V5.60638H0.638298C0.469011 5.60638 0.306657 5.67363 0.186953 5.79334C0.067249 5.91304 0 6.07539 0 6.24468V19.8617C0 20.031 0.067249 20.1933 0.186953 20.313C0.306657 20.4328 0.469011 20.5 0.638298 20.5H14.2553C14.4246 20.5 14.587 20.4328 14.7067 20.313C14.8264 20.1933 14.8936 20.031 14.8936 19.8617V15.3936H19.3617C19.531 15.3936 19.6933 15.3264 19.813 15.2067C19.9328 15.087 20 14.9246 20 14.7553V1.1383C20 0.969011 19.9328 0.806657 19.813 0.686953C19.6933 0.567249 19.531 0.5 19.3617 0.5ZM13.617 19.2234H1.2766V6.88298H13.617V19.2234ZM18.7234 14.117H14.8936V6.24468C14.8936 6.07539 14.8264 5.91304 14.7067 5.79334C14.587 5.67363 14.4246 5.60638 14.2553 5.60638H6.38298V1.7766H18.7234V14.117Z" fill="black"/>
</svg>
