<svg width="19" height="19" viewBox="0 0 19 19" fill="none" xmlns="http://www.w3.org/2000/svg">
<g id="Group 903">
<path id="Vector" d="M4.94046 1.00117C4.80409 1.00585 4.67218 1.05728 4.56221 1.14865C4.27604 1.39471 4.20733 1.87 4.26117 2.47433C4.31429 3.07946 4.49846 3.84008 4.79312 4.71852C5.046 5.46953 5.38458 6.30869 5.78975 7.19916C4.961 7.31618 4.20308 7.47007 3.55283 7.65601C2.78783 7.87562 2.16592 8.13691 1.72321 8.43587C1.28121 8.73483 1 9.08669 1 9.50026C1 9.91383 1.28121 10.2657 1.72321 10.5647C2.11279 10.8291 2.64971 11.06 3.29358 11.262C3.291 11.2878 3.28958 11.3137 3.28933 11.3397C3.28933 11.7284 3.54787 12.0506 3.87017 12.0506C4.13083 12.0506 4.35042 11.8422 4.4255 11.5569C4.84554 11.6483 5.29462 11.7276 5.76992 11.795C5.39803 12.5931 5.06509 13.4137 4.77258 14.2531C4.47438 15.1292 4.28667 15.8882 4.23071 16.4933C4.17404 17.0977 4.24204 17.573 4.52821 17.8206C4.67058 17.944 4.85404 17.9873 5.04812 17.9657C5.24221 17.9448 5.45329 17.8655 5.68279 17.7357C6.1425 17.4768 6.67942 17.0191 7.27229 16.3972C7.95371 15.6838 8.70737 14.7477 9.48087 13.6552C10.2501 14.7533 11.001 15.6934 11.6788 16.4116C12.2696 17.0367 12.8037 17.4976 13.262 17.7597C13.4908 17.8903 13.7011 17.9721 13.8952 17.9945C14.0893 18.0162 14.2735 17.9745 14.4165 17.8519C14.7034 17.6058 14.7721 17.1305 14.7183 16.5262C14.68 16.0934 14.5724 15.5804 14.4087 15.0033C14.4853 14.9343 14.547 14.8465 14.5891 14.7465C14.6312 14.6465 14.6526 14.537 14.6517 14.4263C14.6528 14.2413 14.5926 14.0626 14.4831 13.9253C14.4212 13.8485 14.3435 13.79 14.257 13.7549C14.1704 13.7198 14.0776 13.7093 13.9866 13.7242C13.7656 13.123 13.4978 12.4762 13.1897 11.8006C13.9498 11.6991 14.7037 11.5452 15.4472 11.3397C16.2122 11.1209 16.8341 10.8612 17.2768 10.5622C17.7188 10.2625 18 9.91063 18 9.49706C18 9.08348 17.7188 8.73002 17.2768 8.43106C16.8341 8.1321 16.2122 7.87322 15.4472 7.65441C14.7108 7.45168 13.9643 7.29965 13.2117 7.19916C13.583 6.40202 13.9155 5.58246 14.2076 4.74417C14.5065 3.86813 14.6942 3.10911 14.7502 2.50398C14.8068 1.89965 14.7381 1.42436 14.4527 1.1767C14.3434 1.08537 14.2123 1.03367 14.0765 1.02842C14.0286 1.02538 13.9805 1.02645 13.9327 1.03163C13.7387 1.05247 13.529 1.13342 13.2988 1.26326C12.9375 1.46684 12.5253 1.79626 12.079 2.22907C11.9907 2.16489 11.8879 2.13068 11.783 2.13048C11.46 2.13048 11.2021 2.45108 11.2021 2.84061C11.2021 2.93519 11.2163 3.02576 11.2446 3.10831C10.628 3.81842 10.0451 4.56513 9.49858 5.34529C8.72933 4.24724 7.9785 3.30708 7.30063 2.58894C6.70988 1.96377 6.17579 1.50291 5.7175 1.24082C5.48871 1.11018 5.27833 1.02842 5.08425 1.00598C5.03626 1.00023 4.98795 0.998624 4.93975 1.00117H4.94046ZM4.95533 1.30975C4.98912 1.30805 5.02297 1.30912 5.05662 1.31296C5.20183 1.32899 5.38387 1.39711 5.59283 1.51654C6.01217 1.75538 6.53492 2.20182 7.11362 2.81496C7.79008 3.5307 8.54587 4.47968 9.32292 5.59296C9.01975 6.02897 8.71446 6.49063 8.40917 6.97153C7.63046 6.99937 6.85304 7.06221 6.07875 7.15989C5.69327 6.33196 5.34965 5.47993 5.04954 4.60791C4.75983 3.7463 4.58346 3.00332 4.53317 2.44387C4.48358 1.88282 4.56858 1.53337 4.72867 1.39631C4.79433 1.34127 4.87362 1.31099 4.95533 1.30975ZM14.0602 1.3362C14.142 1.33744 14.2213 1.36772 14.2869 1.42276C14.4463 1.56062 14.5299 1.91168 14.4782 2.47112C14.4257 3.03137 14.2444 3.77275 13.9519 4.63356C13.6505 5.49638 13.3064 6.33929 12.9212 7.15828C12.1418 7.06041 11.3591 6.99785 10.5752 6.97073C10.2833 6.50467 9.9824 6.04584 9.67283 5.59456C10.2132 4.82028 10.7892 4.07868 11.3983 3.37281C11.5012 3.48657 11.6391 3.55065 11.783 3.55154C12.106 3.55154 12.3638 3.23014 12.3638 2.84061C12.3641 2.70402 12.3315 2.56991 12.2696 2.45269C12.7017 2.03671 13.0934 1.72412 13.4206 1.53978C13.631 1.42196 13.8137 1.35544 13.959 1.33941C13.9924 1.33562 14.0267 1.33455 14.0602 1.3362ZM9.49717 5.84222C9.74083 6.19729 9.98592 6.57399 10.2303 6.95951C9.98946 6.9539 9.7465 6.94829 9.5 6.94829C9.24854 6.94829 9.00133 6.9531 8.75625 6.95951C9.00417 6.57399 9.25138 6.19809 9.49717 5.84222ZM9.5 7.25847C9.81521 7.25847 10.1255 7.26488 10.4307 7.2745C10.6185 7.57506 10.8062 7.88364 10.9925 8.19943C11.2517 8.64025 11.4954 9.07547 11.7298 9.50828C11.4898 9.94688 11.2428 10.3806 10.9889 10.8091C10.8026 11.1217 10.6156 11.4247 10.4286 11.7212C10.1233 11.7316 9.81379 11.7388 9.5 11.7388C9.177 11.7388 8.85896 11.7316 8.54517 11.7212C8.35531 11.4173 8.169 11.1106 7.98629 10.8011C7.73354 10.37 7.48794 9.93369 7.24962 9.49225C7.66336 8.7382 8.09802 7.99912 8.55296 7.2761C8.86392 7.26568 9.17912 7.25847 9.5 7.25847ZM8.208 7.29053C8.05925 7.52777 7.91192 7.76902 7.76529 8.01589C7.52871 8.41343 7.307 8.80777 7.09025 9.1997C6.78399 8.62678 6.49134 8.04468 6.21263 7.45404C6.8759 7.3735 7.54141 7.31869 8.208 7.28973V7.29053ZM10.7757 7.29053C11.4472 7.31835 12.1177 7.37235 12.786 7.45243C12.5017 8.04872 12.2031 8.63617 11.8906 9.21413C11.5343 8.56172 11.1625 7.92029 10.7757 7.29053ZM13.0764 7.49171C13.9356 7.60873 14.7176 7.76422 15.3799 7.95337C16.1286 8.16817 16.7307 8.42385 17.1351 8.69716C17.5396 8.97047 17.7259 9.24939 17.7259 9.49706C17.7259 9.74552 17.5396 10.022 17.1351 10.2953C16.7314 10.5695 16.1286 10.8259 15.3799 11.0407C14.7119 11.2323 13.9235 11.3878 13.0558 11.5056C12.7395 10.8285 12.405 10.1624 12.0528 9.50828C12.4123 8.84819 12.7536 8.17567 13.0764 7.49171ZM5.92292 7.49331C6.22325 8.13852 6.55971 8.80777 6.92733 9.49225C6.56846 10.1503 6.22759 10.8206 5.90521 11.5024C5.41657 11.4368 4.93011 11.3518 4.44675 11.2475C4.43135 11.0959 4.37438 10.9535 4.28383 10.8404C4.23151 10.7748 4.16771 10.7223 4.0965 10.6862C4.02529 10.65 3.94821 10.631 3.87017 10.6304C3.76914 10.6319 3.67028 10.6637 3.58366 10.7225C3.49705 10.7814 3.42579 10.8652 3.37717 10.9654C2.74392 10.7674 2.22258 10.5406 1.86417 10.2986C1.46042 10.0252 1.27412 9.74872 1.27412 9.50026C1.27412 9.2518 1.46042 8.97608 1.86487 8.70197C2.26862 8.42786 2.87142 8.17138 3.62012 7.95658C4.28242 7.76662 5.06442 7.61113 5.92362 7.49331H5.92292ZM8.99708 8.13451C8.58908 8.13451 8.25971 8.53526 8.25971 9.02577C8.25971 9.4137 8.46513 9.74472 8.752 9.86654V9.91704C8.752 10.4076 9.08208 10.8059 9.48937 10.8059C9.89737 10.8059 10.2267 10.4076 10.2267 9.91624C10.2267 9.90341 10.2267 9.88899 10.2253 9.87616C10.5257 9.76315 10.7424 9.42332 10.7424 9.02417C10.7424 8.78853 10.6666 8.56331 10.5285 8.3966C10.4618 8.31485 10.381 8.24947 10.2911 8.20453C10.2012 8.15958 10.1041 8.13602 10.0057 8.13531C9.91191 8.13564 9.81907 8.15707 9.73261 8.19835C9.64616 8.23963 9.56781 8.29993 9.50212 8.37576C9.43613 8.29995 9.35752 8.23968 9.27084 8.19841C9.18417 8.15714 9.09112 8.1357 8.99708 8.13531V8.13451ZM7.08813 9.7864C7.44317 10.4386 7.81449 11.0792 8.20162 11.7076C7.50037 11.6755 6.82675 11.621 6.19562 11.5433C6.4655 10.9742 6.76442 10.3867 7.08813 9.7864ZM11.8899 9.80243C12.2072 10.3979 12.5005 10.9822 12.7654 11.5465C12.1028 11.6251 11.438 11.6783 10.7722 11.706C10.9195 11.4687 11.0682 11.2291 11.2149 10.983C11.4507 10.5863 11.6732 10.1928 11.8899 9.80243ZM6.06033 11.8358C6.79204 11.9296 7.57687 11.9945 8.40067 12.025C8.70312 12.5059 9.00558 12.9699 9.30592 13.406C8.52462 14.5136 7.76458 15.4586 7.08529 16.1711C6.50375 16.7803 5.97887 17.2211 5.55883 17.4575C5.34917 17.5754 5.16642 17.6419 5.0205 17.6579C4.87529 17.6739 4.77258 17.6435 4.69325 17.5746C4.53387 17.4367 4.45029 17.0856 4.502 16.5262C4.55442 15.9667 4.73504 15.2246 5.02758 14.3638C5.28683 13.6039 5.63746 12.7463 6.06033 11.8358ZM12.9 11.839C13.2251 12.5476 13.5049 13.2232 13.7344 13.846C13.6568 13.9149 13.5943 14.0031 13.5515 14.1037C13.5088 14.2043 13.487 14.3146 13.4879 14.4263C13.4879 14.8158 13.7458 15.1372 14.0688 15.1372C14.0979 15.1371 14.1271 15.1344 14.1559 15.1292C14.3103 15.679 14.4109 16.1655 14.4449 16.5575C14.4945 17.1169 14.4095 17.4672 14.2501 17.6042C14.17 17.6731 14.0673 17.7036 13.9221 17.6876C13.7769 17.6715 13.5949 17.6034 13.3852 17.484C12.9673 17.2451 12.4438 16.7987 11.8651 16.1856C11.1887 15.4698 10.4322 14.5208 9.65512 13.4076C9.95971 12.9707 10.2657 12.5075 10.5717 12.025C11.3497 11.9978 12.1264 11.9358 12.9 11.839ZM10.2253 12.0362C9.98336 12.4152 9.7354 12.7893 9.48158 13.1583C9.23016 12.7898 8.98457 12.4162 8.74492 12.0378C9.23834 12.0496 9.73193 12.0491 10.2253 12.0362Z" fill="#FDDB00" stroke="#FDDB00"/>
</g>
</svg>
