<svg width="17" height="17" viewBox="0 0 17 17" fill="none" xmlns="http://www.w3.org/2000/svg">
<path id="Vector" d="M17 3.4C17 2.27332 15.7818 1.4246 14.3172 0.88825C12.7941 0.33065 10.7366 0 8.5 0C6.26344 0 4.20591 0.33065 2.68281 0.88825C1.21816 1.4246 0 2.27375 0 3.4V13.7063H0.00371873C0.0775625 14.7802 1.26438 15.5924 2.68281 16.1117C4.20591 16.6693 6.26344 17 8.5 17C10.7366 17 12.7941 16.6689 14.3172 16.1117C15.7356 15.5924 16.9224 14.7802 16.9963 13.7063H17V3.4ZM1.32812 3.4C1.32812 2.94228 1.86416 2.35663 3.23531 1.8547C4.54856 1.37403 6.409 1.0625 8.5 1.0625C10.591 1.0625 12.4514 1.37403 13.7647 1.8547C15.1353 2.35663 15.6719 2.9427 15.6719 3.4C15.6719 3.85773 15.1358 4.44338 13.7647 4.9453C12.4514 5.42597 10.591 5.7375 8.5 5.7375C6.409 5.7375 4.54856 5.42597 3.23531 4.9453C1.86469 4.44338 1.32812 3.8573 1.32812 3.4ZM15.6719 13.6C15.6719 14.0577 15.1358 14.6434 13.7647 15.1453C12.4514 15.626 10.591 15.9375 8.5 15.9375C6.409 15.9375 4.54856 15.626 3.23531 15.1453C1.86469 14.6434 1.32812 14.0573 1.32812 13.6V5.26745C1.72763 5.5165 2.19141 5.73155 2.68281 5.91175C4.20591 6.4685 6.26344 6.8 8.5 6.8C10.7366 6.8 12.7941 6.46892 14.3172 5.91175C14.8086 5.73155 15.2724 5.5165 15.6719 5.26745V13.6Z" fill="#FDDB00"/>
</svg>
