<svg width="17" height="17" viewBox="0 0 17 17" fill="none" xmlns="http://www.w3.org/2000/svg">
<g id="logout">
<path id="Vector" d="M11.9218 12.5375C11.7444 12.3329 11.6558 12.1005 11.6558 11.8405C11.6558 11.5811 11.7444 11.3648 11.9218 11.1917L13.7112 9.44444H6.77098C6.49692 9.44444 6.26735 9.35378 6.08228 9.17244C5.89656 8.99174 5.8037 8.76759 5.8037 8.5C5.8037 8.23241 5.89656 8.00794 6.08228 7.82661C6.26735 7.64591 6.49692 7.55556 6.77098 7.55556H13.7112L11.9218 5.80833C11.7283 5.61944 11.6316 5.3953 11.6316 5.13589C11.6316 4.87585 11.7283 4.65139 11.9218 4.4625C12.0991 4.27361 12.3209 4.17917 12.5873 4.17917C12.8529 4.17917 13.0744 4.26574 13.2518 4.43889L16.734 7.83889C16.8307 7.93333 16.8994 8.03565 16.94 8.14583C16.98 8.25602 17 8.37407 17 8.5C17 8.62593 16.98 8.74398 16.94 8.85417C16.8994 8.96435 16.8307 9.06667 16.734 9.16111L13.2518 12.5611C13.0422 12.7657 12.8126 12.8561 12.5631 12.8322C12.3129 12.8089 12.0991 12.7106 11.9218 12.5375ZM1.93457 17C1.40256 17 0.94697 16.8152 0.567795 16.4456C0.189265 16.0754 0 15.6306 0 15.1111V1.88889C0 1.36944 0.189265 0.924611 0.567795 0.554389C0.94697 0.184796 1.40256 0 1.93457 0H7.73826C8.01233 0 8.24222 0.0903518 8.42794 0.271055C8.61301 0.452389 8.70555 0.676852 8.70555 0.944444C8.70555 1.21204 8.61301 1.43619 8.42794 1.61689C8.24222 1.79822 8.01233 1.88889 7.73826 1.88889H1.93457V15.1111H7.73826C8.01233 15.1111 8.24222 15.2018 8.42794 15.3831C8.61301 15.5638 8.70555 15.788 8.70555 16.0556C8.70555 16.3231 8.61301 16.5473 8.42794 16.728C8.24222 16.9093 8.01233 17 7.73826 17H1.93457Z" fill="#FDDB00"/>
</g>
</svg>
