<svg xmlns="http://www.w3.org/2000/svg" width="50" height="50" viewBox="0 0 50 50" fill="none">
  <path d="M2.93754e-05 24.248C2.93754e-05 10.3104 10.9171 0 25.0011 0C39.085 0 50 10.3125 50 24.248C50 38.1834 39.0829 48.4938 24.999 48.4938C22.478 48.4938 20.0404 48.1605 17.7695 47.5355C17.3263 47.4162 16.8555 47.453 16.4361 47.6397L11.4567 49.8272C11.1566 49.9608 10.8281 50.0184 10.5004 49.9949C10.1727 49.9714 9.85579 49.8675 9.57775 49.6925C9.29971 49.5174 9.06908 49.2766 8.90625 48.9912C8.74341 48.7058 8.65339 48.3848 8.64413 48.0563L8.49829 43.598C8.48699 43.3294 8.42221 43.0657 8.30773 42.8225C8.19325 42.5792 8.03138 42.3612 7.8316 42.1813C5.32653 39.9209 3.3324 37.1523 1.98228 34.0602C0.632159 30.9681 -0.042912 27.6237 0.00211279 24.25L2.93754e-05 24.248ZM17.3341 19.6855L10.0004 31.3521C9.27124 32.4563 10.6671 33.7251 11.7088 32.9146L19.605 26.9355C20.1467 26.5188 20.8551 26.5188 21.4176 26.9355L27.2512 31.3105C29.0012 32.623 31.5013 32.1438 32.668 30.3105L40.0017 18.6438C40.7309 17.5396 39.335 16.2896 38.2933 17.0813L30.3971 23.0605C29.8763 23.4771 29.1471 23.4771 28.6054 23.0605L22.7718 18.6854C22.357 18.3721 21.8815 18.1484 21.3755 18.0285C20.8696 17.9087 20.3443 17.8954 19.833 17.9895C19.3216 18.0835 18.8354 18.2828 18.4052 18.5748C17.9751 18.8668 17.6103 19.245 17.3341 19.6855Z" fill="url(#paint0_radial_326_3599)"/>
  <defs>
    <radialGradient id="paint0_radial_326_3599" cx="0" cy="0" r="1" gradientUnits="userSpaceOnUse" gradientTransform="translate(10.6 44.1) rotate(30.4207) scale(38.9062)">
      <stop stop-color="#0099FF"/>
      <stop offset="0.697917" stop-color="#B239E7"/>
      <stop offset="0.96875" stop-color="#FF5280"/>
      <stop offset="1" stop-color="#FF7061"/>
    </radialGradient>
  </defs>
</svg>
