<svg width="30" height="30" viewBox="0 0 30 30" fill="none" xmlns="http://www.w3.org/2000/svg">
<g id="Icon / 24 px / Question ">
<g id="Icon">
<path id="Vector" d="M14.2499 16.8755C14.2499 17.2897 14.5857 17.6255 14.9999 17.6255C15.4142 17.6255 15.7499 17.2897 15.7499 16.8755H14.2499ZM14.9999 15.938V15.188C14.801 15.188 14.6103 15.267 14.4696 15.4077C14.329 15.5483 14.2499 15.7391 14.2499 15.938H14.9999ZM10.9687 12.6568C10.9687 13.071 11.3045 13.4068 11.7187 13.4068C12.1329 13.4068 12.4687 13.071 12.4687 12.6568H10.9687ZM25.5 15C25.5 20.799 20.799 25.5 15 25.5V27C21.6274 27 27 21.6274 27 15H25.5ZM15 25.5C9.20101 25.5 4.5 20.799 4.5 15H3C3 21.6274 8.37258 27 15 27V25.5ZM4.5 15C4.5 9.20101 9.20101 4.5 15 4.5V3C8.37258 3 3 8.37258 3 15H4.5ZM15 4.5C20.799 4.5 25.5 9.20101 25.5 15H27C27 8.37258 21.6274 3 15 3V4.5ZM15.6562 21.0938C15.6562 21.4562 15.3624 21.75 15 21.75V23.25C16.1909 23.25 17.1562 22.2846 17.1562 21.0938H15.6562ZM15 21.75C14.6376 21.75 14.3438 21.4562 14.3438 21.0938H12.8438C12.8438 22.2846 13.8091 23.25 15 23.25V21.75ZM14.3438 21.0938C14.3438 20.7313 14.6376 20.4375 15 20.4375V18.9375C13.8091 18.9375 12.8438 19.9029 12.8438 21.0938H14.3438ZM15 20.4375C15.3624 20.4375 15.6562 20.7313 15.6562 21.0938H17.1562C17.1562 19.9029 16.1909 18.9375 15 18.9375V20.4375ZM15.7499 16.8755V15.938H14.2499V16.8755H15.7499ZM14.9999 16.688C15.7972 16.688 16.5766 16.4516 17.2396 16.0086L16.4062 14.7614C15.99 15.0396 15.5006 15.188 14.9999 15.188L14.9999 16.688ZM17.2396 16.0086C17.9025 15.5657 18.4192 14.9361 18.7243 14.1995L17.3385 13.6254C17.1469 14.088 16.8225 14.4833 16.4062 14.7614L17.2396 16.0086ZM18.7243 14.1995C19.0294 13.4629 19.1093 12.6523 18.9537 11.8703L17.4826 12.163C17.5802 12.654 17.5301 13.1629 17.3385 13.6254L18.7243 14.1995ZM18.9537 11.8703C18.7982 11.0883 18.4142 10.37 17.8505 9.80625L16.7898 10.8669C17.1438 11.2209 17.3849 11.6719 17.4826 12.163L18.9537 11.8703ZM17.8505 9.80625C17.2867 9.24247 16.5684 8.85853 15.7864 8.70299L15.4938 10.1742C15.9848 10.2718 16.4358 10.5129 16.7898 10.8669L17.8505 9.80625ZM15.7864 8.70299C15.0044 8.54744 14.1939 8.62727 13.4572 8.93239L14.0313 10.3182C14.4938 10.1266 15.0027 10.0765 15.4938 10.1742L15.7864 8.70299ZM13.4572 8.93239C12.7206 9.2375 12.091 9.7542 11.6481 10.4171L12.8953 11.2505C13.1734 10.8342 13.5687 10.5098 14.0313 10.3182L13.4572 8.93239ZM11.6481 10.4171C11.2051 11.0801 10.9687 11.8595 10.9687 12.6568H12.4687C12.4687 12.1561 12.6171 11.6668 12.8953 11.2505L11.6481 10.4171Z" fill="#61CD85"/>
</g>
</g>
</svg>
