<svg width="22" height="23" viewBox="0 0 22 23" fill="none" xmlns="http://www.w3.org/2000/svg">
<g id="Group">
<path id="Vector" d="M7.66667 11.5004C7.66667 12.2371 7.31548 12.9437 6.69036 13.4646C6.06523 13.9856 5.21739 14.2782 4.33333 14.2782C3.44928 14.2782 2.60143 13.9856 1.97631 13.4646C1.35119 12.9437 1 12.2371 1 11.5004C1 10.7637 1.35119 10.0572 1.97631 9.53625C2.60143 9.01531 3.44928 8.72266 4.33333 8.72266C5.21739 8.72266 6.06523 9.01531 6.69036 9.53625C7.31548 10.0572 7.66667 10.7637 7.66667 11.5004Z" stroke="black" stroke-width="1.5"/>
<path id="Vector_2" d="M14.3327 5.38867L7.66602 9.27756M14.3327 17.6109L7.66602 13.722" stroke="black" stroke-width="1.5" stroke-linecap="round"/>
<path id="Vector_3" d="M21.0007 18.7222C21.0007 19.4589 20.6495 20.1655 20.0243 20.6864C19.3992 21.2073 18.5514 21.5 17.6673 21.5C16.7833 21.5 15.9354 21.2073 15.3103 20.6864C14.6852 20.1655 14.334 19.4589 14.334 18.7222C14.334 17.9855 14.6852 17.279 15.3103 16.758C15.9354 16.2371 16.7833 15.9444 17.6673 15.9444C18.5514 15.9444 19.3992 16.2371 20.0243 16.758C20.6495 17.279 21.0007 17.9855 21.0007 18.7222ZM21.0007 4.27778C21.0007 5.01449 20.6495 5.72103 20.0243 6.24196C19.3992 6.7629 18.5514 7.05556 17.6673 7.05556C16.7833 7.05556 15.9354 6.7629 15.3103 6.24196C14.6852 5.72103 14.334 5.01449 14.334 4.27778C14.334 3.54107 14.6852 2.83453 15.3103 2.31359C15.9354 1.79266 16.7833 1.5 17.6673 1.5C18.5514 1.5 19.3992 1.79266 20.0243 2.31359C20.6495 2.83453 21.0007 3.54107 21.0007 4.27778Z" stroke="black" stroke-width="1.5"/>
</g>
</svg>
