<svg xmlns="http://www.w3.org/2000/svg" width="50" height="50" viewBox="0 0 50 50" fill="none">
  <path d="M50 5.91888C48.1277 6.93951 46.1417 7.60945 44.1082 7.90643C46.2264 6.34427 47.8527 3.87054 48.6186 0.923113C46.605 2.39343 44.402 3.42935 42.1047 3.98614C40.2334 1.53307 37.5676 0 34.617 0C28.9518 0 24.3586 5.65164 24.3586 12.6222C24.3586 13.6117 24.4494 14.5749 24.6242 15.499C16.0988 14.9724 8.54023 9.94732 3.48066 2.31055C2.59785 4.1748 2.09199 6.34331 2.09199 8.65626C2.09199 13.0356 3.90313 16.8989 6.65547 19.1626C5.02646 19.0998 3.4333 18.5584 2.00898 17.5836C2.0084 17.6365 2.0084 17.6894 2.0084 17.7425C2.0084 23.8582 5.54434 28.9599 10.2369 30.1195C8.72634 30.6251 7.14185 30.699 5.60449 30.3358C6.90977 35.3506 10.6982 38.9998 15.1869 39.1019C11.6762 42.4872 7.25293 44.5053 2.44707 44.5053C1.61895 44.5053 0.802539 44.4455 0 44.3289C4.53965 47.9103 9.93164 50 15.7246 50C34.5932 50 44.9109 30.766 44.9109 14.0861C44.9109 13.5386 44.9012 12.9942 44.8813 12.453C46.8895 10.6666 48.6229 8.45394 50 5.91888Z" fill="#55ACEE"/>
</svg>