<svg width="17" height="17" viewBox="0 0 17 17" fill="none" xmlns="http://www.w3.org/2000/svg">
<path id="Vector" fill-rule="evenodd" clip-rule="evenodd" d="M1.34278 8.23322C1.34278 12.2335 4.18686 14.9591 7.38144 15.5229C7.46834 15.5382 7.55142 15.5709 7.62595 15.619C7.70047 15.6671 7.76497 15.7297 7.81576 15.8032C7.86656 15.8768 7.90266 15.9598 7.922 16.0475C7.94134 16.1353 7.94354 16.226 7.92848 16.3147C7.91342 16.4033 7.88139 16.488 7.83422 16.564C7.78705 16.64 7.72566 16.7058 7.65357 16.7576C7.58147 16.8094 7.50007 16.8462 7.41402 16.8659C7.32798 16.8856 7.23896 16.8879 7.15206 16.8725C3.40077 16.2102 0 12.9852 0 8.23322C0 6.21336 0.900773 4.62585 1.95232 3.41945C2.70619 2.55473 3.5683 1.85165 4.2616 1.31416H2.15335C1.98246 1.31416 1.81858 1.24493 1.69774 1.12171C1.57691 0.998481 1.50902 0.83135 1.50902 0.657081C1.50902 0.482812 1.57691 0.315681 1.69774 0.192455C1.81858 0.0692281 1.98246 0 2.15335 0H6.01933C6.19022 0 6.3541 0.0692281 6.47494 0.192455C6.59578 0.315681 6.66366 0.482812 6.66366 0.657081V4.59957C6.66366 4.77384 6.59578 4.94097 6.47494 5.06419C6.3541 5.18742 6.19022 5.25665 6.01933 5.25665C5.84844 5.25665 5.68456 5.18742 5.56372 5.06419C5.44288 4.94097 5.375 4.77384 5.375 4.59957V2.17362L5.37371 2.17625C4.6366 2.74134 3.73711 3.43391 2.95747 4.32885C2.03608 5.38544 1.34278 6.66411 1.34278 8.23322ZM15.6572 8.76677C15.6572 4.80852 12.8737 2.10003 9.72036 1.49552C9.63247 1.48031 9.54843 1.4474 9.47315 1.39872C9.39786 1.35004 9.33284 1.28656 9.28186 1.21198C9.23089 1.1374 9.19499 1.05321 9.17627 0.964332C9.15754 0.875452 9.15635 0.783659 9.17278 0.694307C9.18921 0.604956 9.22292 0.519835 9.27195 0.443912C9.32098 0.367988 9.38435 0.302782 9.45835 0.252097C9.53235 0.201413 9.61551 0.166265 9.70298 0.148704C9.79044 0.131142 9.88046 0.13152 9.96778 0.149815C13.6714 0.859462 17 4.06602 17 8.76677C17 10.7866 16.0992 12.3728 15.0477 13.5806C14.2938 14.4453 13.4317 15.1483 12.7384 15.6858H14.8466C15.0175 15.6858 15.1814 15.7551 15.3023 15.8783C15.4231 16.0015 15.491 16.1686 15.491 16.3429C15.491 16.5172 15.4231 16.6843 15.3023 16.8075C15.1814 16.9308 15.0175 17 14.8466 17H10.9807C10.8098 17 10.6459 16.9308 10.5251 16.8075C10.4042 16.6843 10.3363 16.5172 10.3363 16.3429V12.4004C10.3363 12.2262 10.4042 12.059 10.5251 11.9358C10.6459 11.8126 10.8098 11.7434 10.9807 11.7434C11.1516 11.7434 11.3154 11.8126 11.4363 11.9358C11.5571 12.059 11.625 12.2262 11.625 12.4004V14.8251H11.6276C12.3634 14.2573 13.2642 13.5661 14.0425 12.6698C14.9639 11.6146 15.6572 10.3372 15.6572 8.76677Z" fill="#FDDB00"/>
</svg>
