<svg xmlns="http://www.w3.org/2000/svg" width="51" height="50" viewBox="0 0 51 50" fill="none">
  <path d="M1.56699 24.7827C1.56581 28.9976 2.67206 33.1132 4.77558 36.7407L1.36581 49.1347L14.1064 45.809C17.6303 47.7188 21.5786 48.7196 25.5908 48.7198H25.6014C38.8465 48.7198 49.6283 37.99 49.634 24.8016C49.6365 18.4109 47.1389 12.4015 42.601 7.88033C38.0639 3.35957 32.0297 0.868578 25.6004 0.865662C12.3537 0.865662 1.57265 11.5949 1.56718 24.7827" fill="url(#paint0_linear_326_3583)"/>
  <path d="M0.708984 24.7749C0.707617 29.1415 1.85352 33.4042 4.03203 37.1616L0.5 50L13.6975 46.5551C17.3338 48.5289 21.4279 49.5695 25.5939 49.5711H25.6047C39.325 49.5711 50.4941 38.4552 50.5 24.7948C50.5023 18.1744 47.9148 11.949 43.2148 7.26588C38.5143 2.58335 32.2643 0.00272218 25.6047 0C11.882 0 0.714453 11.1143 0.708984 24.7749ZM8.56836 36.5145L8.07559 35.7358C6.0041 32.4567 4.91074 28.6675 4.9123 24.7765C4.9168 13.4221 14.1988 4.18438 25.6125 4.18438C31.1398 4.18671 36.3344 6.33179 40.2414 10.2237C44.1482 14.116 46.298 19.2901 46.2967 24.7932C46.2916 36.1476 37.0094 45.3865 25.6047 45.3865H25.5965C21.883 45.3845 18.241 44.3917 15.0648 42.5156L14.309 42.0693L6.47734 44.1135L8.56836 36.5143V36.5145Z" fill="url(#paint1_linear_326_3583)"/>
  <path d="M19.3824 14.4174C18.9164 13.3863 18.426 13.3655 17.9828 13.3474C17.6199 13.3319 17.2051 13.333 16.7906 13.333C16.3758 13.333 15.7018 13.4884 15.132 14.1077C14.5617 14.7276 12.9547 16.2255 12.9547 19.2722C12.9547 22.3191 15.1838 25.2636 15.4945 25.6771C15.8057 26.0899 19.7978 32.5423 26.1205 35.0245C31.3752 37.0873 32.4445 36.6771 33.585 36.5736C34.7256 36.4706 37.2654 35.076 37.7836 33.63C38.3021 32.1841 38.3021 30.9447 38.1467 30.6857C37.9912 30.4277 37.5764 30.2728 36.9543 29.9632C36.332 29.6535 33.2738 28.1553 32.7037 27.9486C32.1334 27.7421 31.7187 27.639 31.3039 28.2591C30.8891 28.8782 29.6978 30.2728 29.3348 30.6857C28.9721 31.0997 28.609 31.1512 27.9871 30.8415C27.3646 30.5308 25.3613 29.8776 22.9846 27.7682C21.1353 26.1267 19.8869 24.0996 19.524 23.4796C19.1611 22.8605 19.4852 22.5249 19.7971 22.2163C20.0766 21.9388 20.4193 21.4931 20.7307 21.1317C21.0408 20.77 21.1443 20.512 21.3518 20.099C21.5594 19.6856 21.4555 19.324 21.3002 19.0142C21.1443 18.7045 19.9355 15.6418 19.3824 14.4174Z" fill="white"/>
  <defs>
    <linearGradient id="paint0_linear_326_3583" x1="2414.77" y1="4827.77" x2="2414.77" y2="0.865662" gradientUnits="userSpaceOnUse">
      <stop stop-color="#1FAF38"/>
      <stop offset="1" stop-color="#60D669"/>
    </linearGradient>
    <linearGradient id="paint1_linear_326_3583" x1="2500.5" y1="5000" x2="2500.5" y2="0" gradientUnits="userSpaceOnUse">
      <stop stop-color="#F9F9F9"/>
      <stop offset="1" stop-color="white"/>
    </linearGradient>
  </defs>
</svg>