<svg width="56" height="60" viewBox="0 0 56 60" fill="none" xmlns="http://www.w3.org/2000/svg">
<g id="Knowledge Base Logo">
<path id="Vector" d="M28.1728 6C27.8014 6 27.4452 6.13824 27.1826 6.38432C26.9199 6.63039 26.7724 6.96414 26.7724 7.31214C26.7724 7.66014 26.9199 7.99389 27.1826 8.23997C27.4452 8.48604 27.8014 8.62428 28.1728 8.62428C28.5442 8.62428 28.9004 8.48604 29.1631 8.23997C29.4257 7.99389 29.5732 7.66014 29.5732 7.31214C29.5732 6.96414 29.4257 6.63039 29.1631 6.38432C28.9004 6.13824 28.5442 6 28.1728 6ZM27.8367 10.1726C26.7257 10.2601 23.6915 12.5257 23.6915 12.5257C23.5048 12.6569 23.5608 12.6482 23.7101 12.8931C23.8595 13.1293 23.8409 13.1468 24.0182 13.0331C24.205 12.9194 24.5131 12.7357 25.0265 12.4382C27.0058 11.2486 25.344 13.9953 24.4944 18.6228C24.1583 20.9147 26.3616 19.7337 26.9311 19.3838C27.4913 19.0427 28.9944 18.0717 29.1438 17.9755C29.3492 17.8443 29.1998 17.7393 29.0411 17.5206C28.929 17.3719 28.817 17.4769 28.817 17.4769C28.2102 17.853 27.0992 18.6403 26.9498 18.1417C26.7724 17.6431 27.9114 14.2228 28.5369 11.8696C28.6396 11.3098 28.9197 10.0851 27.8367 10.1726Z" fill="#DB0A40"/>
<path id="Vector_2" d="M24.1728 36C23.8014 36 23.4452 36.1382 23.1826 36.3843C22.9199 36.6304 22.7724 36.9641 22.7724 37.3121C22.7724 37.6601 22.9199 37.9939 23.1826 38.24C23.4452 38.486 23.8014 38.6243 24.1728 38.6243C24.5442 38.6243 24.9004 38.486 25.1631 38.24C25.4257 37.9939 25.5732 37.6601 25.5732 37.3121C25.5732 36.9641 25.4257 36.6304 25.1631 36.3843C24.9004 36.1382 24.5442 36 24.1728 36ZM23.8367 40.1726C22.7257 40.2601 19.6915 42.5257 19.6915 42.5257C19.5048 42.6569 19.5608 42.6482 19.7101 42.8931C19.8595 43.1293 19.8409 43.1468 20.0182 43.0331C20.205 42.9194 20.5131 42.7357 21.0265 42.4382C23.0058 41.2486 21.344 43.9953 20.4944 48.6228C20.1583 50.9147 22.3616 49.7337 22.9311 49.3838C23.4913 49.0427 24.9944 48.0717 25.1438 47.9755C25.3492 47.8443 25.1998 47.7393 25.0411 47.5206C24.929 47.3719 24.817 47.4769 24.817 47.4769C24.2102 47.853 23.0992 48.6403 22.9498 48.1417C22.7724 47.6431 23.9114 44.2228 24.5369 41.8696C24.6396 41.3098 24.9197 40.0851 23.8367 40.1726Z" fill="#DB0A40"/>
<path id="Vector_3" d="M43.5996 38C43.2282 38 42.872 38.1382 42.6093 38.3843C42.3467 38.6304 42.1992 38.9641 42.1992 39.3121C42.1992 39.6601 42.3467 39.9939 42.6093 40.24C42.872 40.486 43.2282 40.6243 43.5996 40.6243C43.971 40.6243 44.3272 40.486 44.5898 40.24C44.8525 39.9939 45 39.6601 45 39.3121C45 38.9641 44.8525 38.6304 44.5898 38.3843C44.3272 38.1382 43.971 38 43.5996 38ZM43.2635 42.1726C42.1525 42.2601 39.1182 44.5257 39.1182 44.5257C38.9315 44.6569 38.9875 44.6482 39.1369 44.8931C39.2863 45.1293 39.2676 45.1468 39.445 45.0331C39.6317 44.9194 39.9398 44.7357 40.4533 44.4382C42.4326 43.2486 40.7707 45.9953 39.9211 50.6228C39.585 52.9147 41.7884 51.7337 42.3579 51.3838C42.918 51.0427 44.4212 50.0717 44.5705 49.9755C44.7759 49.8443 44.6266 49.7393 44.4678 49.5206C44.3558 49.3719 44.2438 49.4769 44.2438 49.4769C43.6369 49.853 42.5259 50.6403 42.3765 50.1417C42.1992 49.6431 43.3382 46.2228 43.9637 43.8696C44.0664 43.3098 44.3465 42.0851 43.2635 42.1726Z" fill="#DB0A40"/>
<path id="Vector_4" d="M36.5996 27C36.2282 27 35.872 27.158 35.6093 27.4393C35.3467 27.7206 35.1992 28.1022 35.1992 28.5C35.1992 28.8978 35.3467 29.2794 35.6093 29.5607C35.872 29.842 36.2282 30 36.5996 30C36.971 30 37.3272 29.842 37.5898 29.5607C37.8525 29.2794 38 28.8978 38 28.5C38 28.1022 37.8525 27.7206 37.5898 27.4393C37.3272 27.158 36.971 27 36.5996 27ZM36.2635 31.77C35.1525 31.87 32.1182 34.46 32.1182 34.46C31.9315 34.61 31.9875 34.6 32.1369 34.88C32.2863 35.15 32.2676 35.17 32.445 35.04C32.6317 34.91 32.9398 34.7 33.4533 34.36C35.4326 33 33.7707 36.14 32.9211 41.43C32.585 44.05 34.7884 42.7 35.3579 42.3C35.918 41.91 37.4212 40.8 37.5705 40.69C37.7759 40.54 37.6266 40.42 37.4678 40.17C37.3558 40 37.2438 40.12 37.2438 40.12C36.6369 40.55 35.5259 41.45 35.3765 40.88C35.1992 40.31 36.3382 36.4 36.9637 33.71C37.0664 33.07 37.3465 31.67 36.2635 31.77Z" fill="#2A8D34"/>
<path id="Vector_5" d="M14.5996 28C14.2282 28 13.872 28.158 13.6093 28.4393C13.3467 28.7206 13.1992 29.1022 13.1992 29.5C13.1992 29.8978 13.3467 30.2794 13.6093 30.5607C13.872 30.842 14.2282 31 14.5996 31C14.971 31 15.3272 30.842 15.5898 30.5607C15.8525 30.2794 16 29.8978 16 29.5C16 29.1022 15.8525 28.7206 15.5898 28.4393C15.3272 28.158 14.971 28 14.5996 28ZM14.2635 32.77C13.1525 32.87 10.1182 35.46 10.1182 35.46C9.93151 35.61 9.98753 35.6 10.1369 35.88C10.2863 36.15 10.2676 36.17 10.445 36.04C10.6317 35.91 10.9398 35.7 11.4533 35.36C13.4326 34 11.7707 37.14 10.9211 42.43C10.585 45.05 12.7884 43.7 13.3579 43.3C13.918 42.91 15.4212 41.8 15.5705 41.69C15.7759 41.54 15.6266 41.42 15.4678 41.17C15.3558 41 15.2438 41.12 15.2438 41.12C14.6369 41.55 13.5259 42.45 13.3765 41.88C13.1992 41.31 14.3382 37.4 14.9637 34.71C15.0664 34.07 15.3465 32.67 14.2635 32.77Z" fill="#2A8D34"/>
<path id="Vector_6" d="M0 12C0 9.93 1.1025 8.121 2.709 6.66C4.3015 5.214 6.4855 4.011 8.9845 3.054C13.986 1.131 20.7095 0 28 0C35.2905 0 42.014 1.131 47.0155 3.054C49.5145 4.014 51.6985 5.214 53.291 6.66C54.8975 8.121 56 9.93 56 12V48C56 50.07 54.8975 51.879 53.291 53.34C51.6985 54.786 49.5145 55.989 47.0155 56.949C42.014 58.869 35.2905 60 28 60C20.7095 60 13.986 58.869 8.9845 56.949C6.4855 55.989 4.3015 54.789 2.709 53.34C1.1025 51.879 0 50.07 0 48V12ZM5.25 12C5.25 12.621 5.565 13.38 6.5275 14.25C7.504 15.138 9.037 16.038 11.13 16.842C15.3125 18.447 21.2765 19.5 28 19.5C34.7235 19.5 40.6875 18.45 44.87 16.842C46.963 16.038 48.496 15.138 49.4725 14.25C50.435 13.38 50.75 12.621 50.75 12C50.75 11.379 50.435 10.62 49.4725 9.75C48.496 8.862 46.963 7.962 44.87 7.158C40.6875 5.553 34.72 4.5 28 4.5C21.2765 4.5 15.3125 5.55 11.13 7.158C9.037 7.962 7.504 8.862 6.5275 9.75C5.565 10.62 5.25 11.379 5.25 12ZM50.75 19.176C49.63 19.836 48.37 20.427 47.0155 20.946C42.014 22.869 35.2905 24 28 24C20.7095 24 13.986 22.869 8.9845 20.946C7.68035 20.453 6.4305 19.8606 5.25 19.176V48C5.25 48.621 5.565 49.38 6.5275 50.25C7.504 51.138 9.037 52.038 11.13 52.842C15.3125 54.447 21.2765 55.5 28 55.5C34.7235 55.5 40.6875 54.45 44.87 52.842C46.963 52.038 48.496 51.138 49.4725 50.25C50.435 49.38 50.75 48.621 50.75 48V19.176Z" fill="#021794"/>
</g>
</svg>
