<svg width="20" height="24" viewBox="0 0 20 24" fill="none" xmlns="http://www.w3.org/2000/svg">
<g id="Notification Bell">
<path id="Vector" d="M19.7718 18.6833C19.1246 18.075 18.558 17.3777 18.0872 16.6101C17.5733 15.5506 17.2653 14.3934 17.1812 13.2067V9.71123C17.1857 7.8472 16.5443 6.04561 15.3777 4.64495C14.211 3.2443 12.5994 2.341 10.8456 2.10477V1.19199C10.8456 0.941464 10.7512 0.701197 10.5832 0.524047C10.4152 0.346897 10.1873 0.247375 9.94967 0.247375C9.71204 0.247375 9.48414 0.346897 9.31612 0.524047C9.14809 0.701197 9.05369 0.941464 9.05369 1.19199V2.11892C7.31561 2.37218 5.72347 3.28094 4.57217 4.67689C3.42086 6.07283 2.78841 7.86137 2.79195 9.71123V13.2067C2.70789 14.3934 2.39985 15.5506 1.88591 16.6101C1.42341 17.376 0.865903 18.0732 0.228188 18.6833C0.156598 18.7496 0.0992224 18.8312 0.0598775 18.9227C0.0205325 19.0142 0.000120669 19.1135 0 19.214V20.1763C0 20.364 0.0707093 20.5439 0.196573 20.6766C0.322436 20.8093 0.493143 20.8839 0.671141 20.8839H19.3289C19.5069 20.8839 19.6776 20.8093 19.8034 20.6766C19.9293 20.5439 20 20.364 20 20.1763V19.214C19.9999 19.1135 19.9795 19.0142 19.9401 18.9227C19.9008 18.8312 19.8434 18.7496 19.7718 18.6833ZM1.39597 19.4687C2.02041 18.8328 2.5702 18.1201 3.03356 17.346C3.68095 16.0663 4.05868 14.6544 4.14094 13.2067V9.71123C4.11432 8.88197 4.24626 8.05555 4.52889 7.28117C4.81152 6.50679 5.23907 5.80029 5.78607 5.20375C6.33308 4.6072 6.98835 4.1328 7.71287 3.80881C8.4374 3.48481 9.21635 3.31784 10.0034 3.31784C10.7904 3.31784 11.5693 3.48481 12.2938 3.80881C13.0184 4.1328 13.6736 4.6072 14.2206 5.20375C14.7676 5.80029 15.1952 6.50679 15.4778 7.28117C15.7605 8.05555 15.8924 8.88197 15.8658 9.71123V13.2067C15.948 14.6544 16.3258 16.0663 16.9732 17.346C17.4365 18.1201 17.9863 18.8328 18.6107 19.4687H1.39597Z" fill="black" fill-opacity="0.8"/>
<path id="Vector_2" d="M10.0335 23.2472C10.4563 23.2369 10.862 23.0694 11.1789 22.7741C11.4958 22.4789 11.7034 22.075 11.7651 21.6339H8.23486C8.29827 22.087 8.51562 22.5003 8.84648 22.7971C9.17733 23.0939 9.59917 23.2538 10.0335 23.2472Z" fill="black" fill-opacity="0.8"/>
</g>
</svg>
