<svg width="553" height="303" viewBox="0 0 553 303" fill="none" xmlns="http://www.w3.org/2000/svg">
<g clip-path="url(#clip0_666_3388)">
<path d="M30.2009 275.086C18.4172 285.134 15.9714 301.613 15.9714 301.613C15.9714 301.613 32.6307 301.802 44.4144 291.755C56.1981 281.707 58.6438 265.227 58.6438 265.227C58.6438 265.227 41.9846 265.038 30.2009 275.086Z" fill="#F2F2F2"/>
<path d="M35.6459 279.084C30.6265 293.734 16.1957 302.06 16.1957 302.06C16.1957 302.06 9.90298 286.634 14.9224 271.984C19.9418 257.334 34.3726 249.008 34.3726 249.008C34.3726 249.008 40.6653 264.434 35.6459 279.084Z" fill="#F2F2F2"/>
<path d="M158.644 62.3385C155.978 58.8837 152.21 55.6872 151.971 51.424C151.752 47.514 154.668 43.6319 153.438 39.8911C152.493 37.0149 149.374 35.2794 146.326 34.3604C140.491 32.6261 134.246 32.8665 128.562 35.0443L128.87 34.8267C125.401 33.5908 121.345 34.8666 118.615 37.2297C115.885 39.5928 114.263 42.8683 113.004 46.1507C111.745 49.4331 110.77 52.8356 109.021 55.9129C107.272 58.9902 104.594 61.7887 101.06 62.8523C102.243 65.2118 105.941 66.0213 108.11 64.3954C108.664 63.9455 109.162 63.4306 109.593 62.8619C111.039 61.103 112.486 59.3441 113.933 57.5853C115.421 60.2324 113.197 63.8859 115.027 66.3366C115.97 67.6004 117.693 68.0803 119.293 68.4245C131.8 71.0931 144.774 70.6119 157.049 67.0241C158.036 66.7334 159.124 66.333 159.533 65.4401C160.006 64.4092 159.345 63.247 158.644 62.3385Z" fill="#2F2E41"/>
<path d="M194.106 75.8206C194.028 76.1639 193.977 76.5129 193.954 76.8642L166.618 92.6344L159.973 88.8093L152.89 98.0825L163.995 105.997C164.892 106.637 165.972 106.968 167.073 106.941C168.175 106.914 169.237 106.531 170.102 105.848L198.291 83.6104C199.563 84.0813 200.948 84.1537 202.262 83.8181C203.577 83.4824 204.758 82.7546 205.648 81.7314C206.539 80.7081 207.097 79.438 207.248 78.09C207.399 76.742 207.136 75.3798 206.494 74.1848C205.852 72.9899 204.862 72.0186 203.654 71.4003C202.447 70.782 201.08 70.5459 199.735 70.7235C198.39 70.9011 197.131 71.4839 196.126 72.3944C195.12 73.3049 194.416 74.4999 194.106 75.8206Z" fill="#FFB7B7"/>
<path d="M165.704 93.3817L156.869 104.832C156.618 105.158 156.299 105.426 155.935 105.617C155.571 105.809 155.169 105.92 154.758 105.942C154.348 105.965 153.937 105.898 153.554 105.748C153.171 105.597 152.825 105.366 152.539 105.069L142.538 94.6834C140.876 93.3886 139.795 91.4872 139.534 89.3967C139.272 87.3062 139.851 85.1974 141.143 83.5332C142.435 81.869 144.334 80.7854 146.424 80.5203C148.514 80.2552 150.624 80.8301 152.291 82.1191L164.835 89.1335C165.194 89.3344 165.506 89.6104 165.749 89.9426C165.992 90.2748 166.16 90.6555 166.242 91.0586C166.325 91.4618 166.319 91.878 166.227 92.2789C166.134 92.6798 165.955 93.0559 165.704 93.3817Z" fill="#2F2E41"/>
<path d="M153.545 292.895L161.347 292.895L165.058 262.803L153.544 262.803L153.545 292.895Z" fill="#FFB7B7"/>
<path d="M151.555 290.348L166.919 290.348H166.919C169.516 290.348 172.007 291.379 173.843 293.216C175.679 295.052 176.711 297.542 176.711 300.139V300.457L151.555 300.458L151.555 290.348Z" fill="#2F2E41"/>
<path d="M100.091 292.895L107.893 292.895L111.604 262.803L100.09 262.803L100.091 292.895Z" fill="#FFB7B7"/>
<path d="M98.1011 290.348L113.465 290.348H113.466C116.063 290.348 118.553 291.379 120.389 293.216C122.225 295.052 123.257 297.542 123.257 300.139V300.457L98.1015 300.458L98.1011 290.348Z" fill="#2F2E41"/>
<path d="M148.86 58.0849C149.672 50.6829 144.33 44.0237 136.928 43.2112C129.526 42.3986 122.867 47.7404 122.055 55.1424C121.242 62.5444 126.584 69.2036 133.986 70.0161C141.388 70.8287 148.047 65.4869 148.86 58.0849Z" fill="#FFB7B7"/>
<path d="M143.346 76.8262L151.289 80.7612C151.289 80.7612 160.164 96.1846 155.073 110.821C152.602 117.927 159.562 140.579 159.562 140.579C159.562 140.579 170.346 243.183 170.38 274.85C156.982 276.909 144.255 279.455 143.619 273.091C142.983 266.728 136.017 191.487 136.017 191.487C136.017 191.487 126.437 275 118.801 276.273C111.165 277.546 95.8923 275.637 95.8923 275.637C95.8923 275.637 108.017 153.306 116.29 145.669L117.562 139.306L117.528 82.1847L127.059 77.6363L143.346 76.8262Z" fill="#021794"/>
<path d="M114.931 163.543C115.81 163.067 116.574 162.404 117.169 161.602C117.764 160.799 118.176 159.875 118.376 158.896C118.576 157.917 118.558 156.906 118.325 155.934C118.092 154.962 117.648 154.053 117.025 153.272L126.263 91.6966L114.194 91.1172L106.993 152.437C105.749 153.57 104.964 155.12 104.786 156.793C104.609 158.467 105.051 160.147 106.029 161.516C107.008 162.885 108.454 163.847 110.095 164.221C111.736 164.594 113.456 164.353 114.931 163.543Z" fill="#FFB7B7"/>
<path d="M126.001 107.124L111.567 106.213C111.156 106.187 110.756 106.073 110.393 105.878C110.031 105.684 109.714 105.413 109.466 105.086C109.217 104.758 109.042 104.38 108.952 103.978C108.863 103.577 108.861 103.161 108.947 102.758L111.954 88.6563C112.098 86.5555 113.07 84.5977 114.656 83.2122C116.241 81.8266 118.312 81.1265 120.413 81.2654C122.514 81.4042 124.474 82.3707 125.864 83.9528C127.253 85.5349 127.959 87.6035 127.825 89.705L129.035 104.026C129.069 104.436 129.015 104.849 128.876 105.236C128.736 105.623 128.515 105.976 128.227 106.27C127.939 106.564 127.592 106.793 127.207 106.94C126.823 107.087 126.412 107.15 126.001 107.124Z" fill="#2F2E41"/>
<path d="M524.921 48.7363H205.729C203.399 48.7363 201.164 49.662 199.517 51.3096C197.869 52.9572 196.943 55.1918 196.943 57.5219V235.37C196.943 237.7 197.869 239.934 199.517 241.582C201.164 243.23 203.399 244.155 205.729 244.155H524.921C527.251 244.155 529.485 243.23 531.133 241.582C532.781 239.934 533.706 237.7 533.706 235.37V57.5219C533.706 55.1918 532.781 52.9572 531.133 51.3096C529.485 49.662 527.251 48.7363 524.921 48.7363Z" fill="#3F3D56"/>
<path d="M521.928 64.2617H208.722V240.942H521.928V64.2617Z" fill="white"/>
<path d="M365.057 59.4423C366.831 59.4423 368.269 58.0041 368.269 56.2299C368.269 54.4558 366.831 53.0176 365.057 53.0176C363.283 53.0176 361.845 54.4558 361.845 56.2299C361.845 58.0041 363.283 59.4423 365.057 59.4423Z" fill="white"/>
<path d="M432.356 240.942H208.722V64.2617L432.356 240.942Z" fill="#F2F2F2"/>
<path d="M542.5 237.729H511.933V235.526C511.933 235.411 511.887 235.3 511.805 235.218C511.724 235.136 511.612 235.09 511.497 235.09H501.016C500.959 235.09 500.902 235.101 500.849 235.123C500.796 235.145 500.748 235.177 500.708 235.218C500.667 235.258 500.635 235.306 500.613 235.359C500.591 235.412 500.58 235.469 500.58 235.526V237.729H494.03V235.526C494.03 235.469 494.019 235.412 493.997 235.359C493.975 235.306 493.943 235.258 493.902 235.218C493.861 235.177 493.813 235.145 493.76 235.123C493.707 235.101 493.651 235.09 493.593 235.09H483.113C483.056 235.09 482.999 235.101 482.946 235.123C482.893 235.145 482.845 235.177 482.804 235.218C482.764 235.258 482.732 235.306 482.71 235.359C482.688 235.412 482.677 235.469 482.677 235.526V237.729H476.126V235.526C476.126 235.469 476.115 235.412 476.093 235.359C476.071 235.306 476.039 235.258 475.999 235.218C475.958 235.177 475.91 235.145 475.857 235.123C475.804 235.101 475.747 235.09 475.69 235.09H465.21C465.152 235.09 465.096 235.101 465.043 235.123C464.99 235.145 464.942 235.177 464.901 235.218C464.86 235.258 464.828 235.306 464.806 235.359C464.784 235.412 464.773 235.469 464.773 235.526V237.729H458.223V235.526C458.223 235.469 458.212 235.412 458.19 235.359C458.168 235.306 458.136 235.258 458.095 235.218C458.055 235.177 458.006 235.145 457.953 235.123C457.901 235.101 457.844 235.09 457.786 235.09H447.306C447.249 235.09 447.192 235.101 447.139 235.123C447.086 235.145 447.038 235.177 446.998 235.218C446.957 235.258 446.925 235.306 446.903 235.359C446.881 235.412 446.87 235.469 446.87 235.526V237.729H440.32V235.526C440.32 235.469 440.308 235.412 440.286 235.359C440.264 235.306 440.232 235.258 440.192 235.218C440.151 235.177 440.103 235.145 440.05 235.123C439.997 235.101 439.94 235.09 439.883 235.09H429.403C429.346 235.09 429.289 235.101 429.236 235.123C429.183 235.145 429.135 235.177 429.094 235.218C429.054 235.258 429.021 235.306 428.999 235.359C428.978 235.412 428.966 235.469 428.966 235.526V237.729H422.416V235.526C422.416 235.469 422.405 235.412 422.383 235.359C422.361 235.306 422.329 235.258 422.288 235.218C422.248 235.177 422.2 235.145 422.147 235.123C422.094 235.101 422.037 235.09 421.98 235.09H411.499C411.442 235.09 411.385 235.101 411.332 235.123C411.279 235.145 411.231 235.177 411.191 235.218C411.15 235.258 411.118 235.306 411.096 235.359C411.074 235.412 411.063 235.469 411.063 235.526V237.729H404.513V235.526C404.513 235.469 404.502 235.412 404.48 235.359C404.458 235.306 404.425 235.258 404.385 235.218C404.344 235.177 404.296 235.145 404.243 235.123C404.19 235.101 404.133 235.09 404.076 235.09H321.982C321.925 235.09 321.868 235.101 321.815 235.123C321.762 235.145 321.714 235.177 321.674 235.218C321.633 235.258 321.601 235.306 321.579 235.359C321.557 235.412 321.546 235.469 321.546 235.526V237.729H314.996V235.526C314.996 235.469 314.984 235.412 314.962 235.359C314.94 235.306 314.908 235.258 314.868 235.218C314.827 235.177 314.779 235.145 314.726 235.123C314.673 235.101 314.616 235.09 314.559 235.09H304.079C304.022 235.09 303.965 235.101 303.912 235.123C303.859 235.145 303.811 235.177 303.77 235.218C303.73 235.258 303.697 235.306 303.676 235.359C303.654 235.412 303.642 235.469 303.642 235.526V237.729H297.092V235.526C297.092 235.469 297.081 235.412 297.059 235.359C297.037 235.306 297.005 235.258 296.964 235.218C296.924 235.177 296.876 235.145 296.823 235.123C296.77 235.101 296.713 235.09 296.656 235.09H286.176C286.118 235.09 286.061 235.101 286.008 235.123C285.955 235.145 285.907 235.177 285.867 235.218C285.826 235.258 285.794 235.306 285.772 235.359C285.75 235.412 285.739 235.469 285.739 235.526V237.729H279.189V235.526C279.189 235.469 279.178 235.412 279.156 235.359C279.134 235.306 279.101 235.258 279.061 235.218C279.02 235.177 278.972 235.145 278.919 235.123C278.866 235.101 278.809 235.09 278.752 235.09H268.272C268.215 235.09 268.158 235.101 268.105 235.123C268.052 235.145 268.004 235.177 267.963 235.218C267.923 235.258 267.891 235.306 267.869 235.359C267.847 235.412 267.835 235.469 267.835 235.526V237.729H261.285V235.526C261.285 235.469 261.274 235.412 261.252 235.359C261.23 235.306 261.198 235.258 261.158 235.218C261.117 235.177 261.069 235.145 261.016 235.123C260.963 235.101 260.906 235.09 260.849 235.09H250.369C250.311 235.09 250.255 235.101 250.202 235.123C250.149 235.145 250.1 235.177 250.06 235.218C250.019 235.258 249.987 235.306 249.965 235.359C249.943 235.412 249.932 235.469 249.932 235.526V237.729H243.382V235.526C243.382 235.469 243.371 235.412 243.349 235.359C243.327 235.306 243.295 235.258 243.254 235.218C243.214 235.177 243.165 235.145 243.112 235.123C243.059 235.101 243.003 235.09 242.945 235.09H232.465C232.349 235.09 232.238 235.136 232.156 235.218C232.075 235.3 232.029 235.411 232.029 235.526V237.729H225.479V235.526C225.479 235.469 225.467 235.412 225.445 235.359C225.423 235.306 225.391 235.258 225.351 235.218C225.31 235.177 225.262 235.145 225.209 235.123C225.156 235.101 225.099 235.09 225.042 235.09H214.562C214.446 235.09 214.335 235.136 214.253 235.218C214.171 235.3 214.125 235.411 214.125 235.526V237.729H194.038C192.662 237.729 191.299 238 190.028 238.527C188.756 239.053 187.601 239.825 186.628 240.798C185.655 241.772 184.883 242.927 184.356 244.198C183.829 245.47 183.558 246.833 183.558 248.209V252.948C183.558 255.727 184.662 258.393 186.628 260.358C188.593 262.324 191.259 263.428 194.038 263.428H542.5C545.28 263.428 547.945 262.324 549.911 260.358C551.876 258.393 552.98 255.727 552.98 252.948V248.209C552.98 246.833 552.709 245.47 552.182 244.198C551.656 242.927 550.884 241.772 549.911 240.798C548.937 239.825 547.782 239.053 546.511 238.527C545.239 238 543.876 237.729 542.5 237.729Z" fill="#021794"/>
<path d="M371.349 217.776C371.245 218.024 371.127 218.267 370.997 218.503C370.313 219.764 369.348 220.85 368.176 221.677C366.788 222.654 365.158 223.23 363.464 223.345C361.771 223.459 360.079 223.105 358.572 222.323C357.066 221.541 355.803 220.361 354.921 218.91C354.04 217.46 353.574 215.795 353.574 214.097V212.602H354.843C359.775 215.789 365.48 217.578 371.349 217.776Z" fill="#3F3D56"/>
<path d="M389.463 213.039V214.097C389.463 216.156 388.778 218.157 387.514 219.784C386.251 221.41 384.482 222.569 382.486 223.078C380.491 223.587 378.382 223.416 376.495 222.593C374.607 221.77 373.047 220.341 372.062 218.532C371.926 218.29 371.804 218.041 371.695 217.786C371.966 217.794 372.233 217.797 372.504 217.797C378.487 217.804 384.356 216.158 389.463 213.039Z" fill="#3F3D56"/>
<path d="M401.949 101.175C401.67 101.134 401.388 101.108 401.106 101.09C404.312 108.477 404.534 116.818 401.726 124.366C402.008 124.333 402.287 124.288 402.565 124.236C405.283 123.709 407.726 122.235 409.46 120.076C411.193 117.917 412.103 115.212 412.029 112.444C411.955 109.677 410.902 107.025 409.056 104.961C407.21 102.898 404.691 101.556 401.949 101.175Z" fill="#3F3D56"/>
<path d="M343.901 101.09C343.619 101.108 343.337 101.134 343.059 101.175C340.316 101.556 337.798 102.898 335.952 104.961C334.106 107.025 333.052 109.677 332.978 112.444C332.904 115.212 333.815 117.917 335.548 120.076C337.281 122.235 339.724 123.709 342.443 124.236C342.721 124.288 342.999 124.333 343.281 124.366C340.474 116.818 340.696 108.477 343.901 101.09Z" fill="#3F3D56"/>
<path d="M401.949 101.176C398.891 93.8716 393.227 87.9651 386.058 84.6033C378.889 81.2416 370.726 80.6647 363.156 82.9849C355.585 85.305 349.147 90.3564 345.092 97.1578C341.038 103.959 339.656 112.025 341.216 119.788C342.776 127.551 347.165 134.457 353.532 139.165C359.899 143.872 367.789 146.045 375.668 145.261C383.547 144.477 390.854 140.792 396.168 134.922C401.482 129.052 404.425 121.417 404.425 113.498C404.423 109.267 403.581 105.079 401.949 101.176ZM401.726 124.366C399.011 131.665 393.662 137.682 386.733 141.235C379.804 144.788 371.796 145.618 364.285 143.563C356.774 141.507 350.304 136.715 346.15 130.129C341.995 123.543 340.456 115.641 341.835 107.977C343.214 100.313 347.412 93.4428 353.603 88.7189C359.793 83.9949 367.528 81.7591 375.284 82.4516C383.04 83.1441 390.256 86.7146 395.512 92.4605C400.768 98.2064 403.682 105.711 403.682 113.498C403.681 117.209 403.019 120.889 401.726 124.366Z" fill="#021794"/>
<path d="M388.835 106.262H356.172C354.45 106.262 352.798 106.946 351.579 108.164C350.361 109.382 349.677 111.034 349.677 112.757C349.677 114.48 350.361 116.132 351.579 117.35C352.798 118.568 354.45 119.253 356.172 119.253H388.835C390.558 119.253 392.21 118.568 393.428 117.35C394.647 116.132 395.331 114.48 395.331 112.757C395.331 111.034 394.647 109.382 393.428 108.164C392.21 106.946 390.558 106.262 388.835 106.262Z" fill="#021794"/>
<path d="M401.726 168.967C401.607 168.748 401.485 168.532 401.358 168.321C401.355 168.313 401.351 168.31 401.347 168.302C398.427 163.303 394.257 159.149 389.246 156.248C384.235 153.347 378.556 151.799 372.767 151.755C366.977 151.711 361.275 153.174 356.221 155.999C351.168 158.824 346.935 162.915 343.94 167.87C340.944 172.824 339.288 178.473 339.135 184.261C338.981 190.049 340.335 195.777 343.064 200.883C345.793 205.99 349.803 210.299 354.7 213.388C359.597 216.477 365.213 218.24 370.997 218.503C371.349 218.522 371.706 218.533 372.062 218.533C372.211 218.54 372.355 218.54 372.504 218.54C378.471 218.549 384.33 216.947 389.463 213.904C395.038 210.605 399.541 205.765 402.431 199.967C402.435 199.959 402.439 199.956 402.442 199.948C402.554 199.726 402.661 199.499 402.769 199.269C405.001 194.495 406.071 189.26 405.889 183.993C405.708 178.725 404.281 173.576 401.726 168.967ZM402.045 199.065C401.938 199.295 401.826 199.521 401.711 199.744C398.95 205.233 394.707 209.839 389.463 213.039C384.356 216.158 378.487 217.805 372.504 217.798C372.233 217.798 371.966 217.794 371.695 217.787C371.58 217.787 371.464 217.783 371.349 217.776C365.682 217.578 360.164 215.907 355.338 212.93C350.513 209.952 346.545 205.769 343.827 200.792C341.108 195.816 339.732 190.217 339.834 184.548C339.935 178.878 341.511 173.332 344.407 168.457C347.302 163.581 351.417 159.543 356.347 156.74C361.276 153.938 366.851 152.467 372.521 152.472C378.192 152.477 383.763 153.959 388.688 156.771C393.612 159.583 397.719 163.629 400.605 168.51C400.609 168.518 400.613 168.521 400.616 168.529C400.746 168.74 400.872 168.956 400.991 169.171C403.538 173.708 404.963 178.79 405.147 183.99C405.33 189.19 404.267 194.359 402.045 199.065Z" fill="#021794"/>
<path d="M398.178 169.953C397.528 169.489 396.749 169.239 395.951 169.236H381.353C380.336 169.236 379.361 169.64 378.642 170.359C377.922 171.078 377.519 172.054 377.519 173.071C377.519 174.087 377.922 175.063 378.642 175.782C379.361 176.501 380.336 176.905 381.353 176.905H395.951C396.211 176.905 396.471 176.879 396.727 176.827C396.981 176.772 397.229 176.694 397.469 176.593C398.093 176.324 398.634 175.894 399.038 175.347C399.441 174.8 399.691 174.156 399.763 173.48C399.836 172.804 399.727 172.121 399.448 171.502C399.17 170.882 398.731 170.347 398.178 169.953Z" fill="#3F3D56"/>
<path d="M382.324 175.018C383.399 175.018 384.271 174.147 384.271 173.072C384.271 171.997 383.399 171.125 382.324 171.125C381.249 171.125 380.378 171.997 380.378 173.072C380.378 174.147 381.249 175.018 382.324 175.018Z" fill="#F1F1F1"/>
<path d="M388.651 175.018C389.726 175.018 390.598 174.147 390.598 173.072C390.598 171.997 389.726 171.125 388.651 171.125C387.576 171.125 386.704 171.997 386.704 173.072C386.704 174.147 387.576 175.018 388.651 175.018Z" fill="#F1F1F1"/>
<path d="M394.977 175.018C396.052 175.018 396.924 174.147 396.924 173.072C396.924 171.997 396.052 171.125 394.977 171.125C393.902 171.125 393.031 171.997 393.031 173.072C393.031 174.147 393.902 175.018 394.977 175.018Z" fill="#021794"/>
<path d="M468.292 108.916C463.23 111.952 454.211 115.756 444.994 111.846L439.037 109.319L450.976 95.9358C441.448 85.4312 436.178 71.7533 436.192 57.5719C436.207 43.3905 441.505 29.7235 451.054 19.2384C460.603 8.75337 473.716 2.20288 487.834 0.865547C501.952 -0.471786 516.062 3.50002 527.41 12.0057C538.757 20.5114 546.528 32.9405 549.205 46.867C551.882 60.7934 549.273 75.2177 541.888 87.3243C534.502 99.4308 522.871 108.351 509.263 112.343C495.655 116.335 481.048 115.113 468.292 108.916Z" fill="white"/>
<path d="M468.323 109.637C463.459 112.493 454.193 116.439 444.746 112.432L437.97 109.558L450.121 95.9371C442.561 87.433 437.686 76.882 436.111 65.6129C434.535 54.3437 436.33 42.8603 441.268 32.6089C446.206 22.3575 454.067 13.7965 463.861 8.00406C473.655 2.21164 484.944 -0.553177 496.307 0.0578048C507.669 0.668786 518.596 4.62824 527.713 11.4375C536.829 18.2468 543.727 27.6014 547.538 38.3233C551.348 49.0451 551.9 60.6547 549.126 71.6899C546.351 82.7252 540.373 92.6926 531.944 100.337C523.479 108.061 512.896 113.074 501.558 114.731C490.219 116.389 478.644 114.614 468.323 109.637ZM534.975 19.7519C530.001 14.2652 523.996 9.81204 517.301 6.64676C510.606 3.48147 503.353 1.66607 495.956 1.30422C488.56 0.942375 481.164 2.04118 474.192 4.53788C467.22 7.03458 460.809 10.8803 455.323 15.8553C449.838 20.8303 445.386 26.8372 442.223 33.5329C439.059 40.2286 437.245 47.4819 436.885 54.8787C436.525 62.2754 437.626 69.6705 440.125 76.6418C442.623 83.613 446.47 90.0238 451.447 95.508L451.831 95.9321L440.102 109.08L445.243 111.26C454.367 115.131 463.395 111.11 467.965 108.37L468.26 108.192L468.57 108.343C480.35 114.067 493.755 115.511 506.484 112.428C519.213 109.345 530.471 101.927 538.326 91.447C546.182 80.9673 550.144 68.0799 549.532 54.9973C548.92 41.9147 543.774 29.4531 534.975 19.7519Z" fill="#021794"/>
<path opacity="0.1" d="M541.347 57.2742C541.346 44.1611 536.435 31.5235 527.582 21.8501C518.729 12.1767 506.575 6.16861 493.513 5.00906C495.041 4.87517 496.587 4.80273 498.151 4.80273C512.061 4.81113 525.4 10.3431 535.233 20.1825C545.067 30.0219 550.59 43.3634 550.59 57.2742C550.59 71.1851 545.067 84.5266 535.233 94.366C525.4 104.205 512.061 109.737 498.151 109.746C496.59 109.746 495.046 109.672 493.52 109.539C506.581 108.377 518.733 102.369 527.585 92.6957C536.436 83.0226 541.346 70.3861 541.347 57.2742Z" fill="black"/>
<path d="M500.615 46.8105H463.122V50.2924H500.615V46.8105Z" fill="#021794"/>
<path d="M528.47 58.8555H463.122V62.3373H528.47V58.8555Z" fill="#021794"/>
<path d="M528.406 70.9004H463.122V74.3822H528.406V70.9004Z" fill="#021794"/>
<path d="M243.088 301.12H0.636355C0.467583 301.12 0.305723 301.053 0.186384 300.934C0.0670439 300.815 0 300.653 0 300.484C0 300.315 0.0670439 300.153 0.186384 300.034C0.305723 299.915 0.467583 299.848 0.636355 299.848H243.088C243.257 299.848 243.418 299.915 243.538 300.034C243.657 300.153 243.724 300.315 243.724 300.484C243.724 300.653 243.657 300.815 243.538 300.934C243.418 301.053 243.257 301.12 243.088 301.12Z" fill="#CBCBCB"/>
<path d="M149.588 47.8489C149.063 45.4655 147.356 43.4908 145.391 42.0446C142.15 39.6606 138.175 38.4887 134.16 38.7329C130.144 38.9771 126.341 40.622 123.413 43.3811C121.777 44.8262 120.597 46.7167 120.018 48.8214C119.742 49.8734 119.728 50.9769 119.975 52.0359C120.223 53.0949 120.726 54.0772 121.44 54.8974L121.71 55.0661C121.466 54.0302 122.27 52.995 123.232 52.5379C124.232 52.1709 125.275 51.9369 126.336 51.8419C127.941 51.5385 129.462 50.8942 130.797 49.9525C132.132 49.0107 133.248 47.7935 134.072 46.383C134.683 48.119 135.658 49.7042 136.932 51.0319C138.206 52.3597 139.749 53.3992 141.459 54.0807C143.241 54.7775 148.135 55.7358 149.832 54.8511C151.996 53.7226 150.114 50.2323 149.588 47.8489Z" fill="#2F2E41"/>
</g>
<defs>
<clipPath id="clip0_666_3388">
<rect width="552.98" height="302.059" fill="white"/>
</clipPath>
</defs>
</svg>
