<svg width="350" height="350" viewBox="0 0 350 350" fill="none" xmlns="http://www.w3.org/2000/svg">
<g clip-path="url(#clip0_389_7528)">
<path d="M348.335 114.253C343.507 137.931 329.409 154.506 314.704 168.586C312.651 170.552 310.597 172.474 308.542 174.349C308.528 174.358 308.514 174.376 308.5 174.385C308.401 174.475 308.302 174.565 308.21 174.655C307.786 175.042 307.362 175.428 306.941 175.81L307.172 175.957C307.172 175.957 307.399 176.128 307.151 175.984C307.077 175.941 307 175.901 306.926 175.858C298.383 170.987 289.689 165.757 283.142 156.632C276.351 147.157 272.382 132.296 276.059 119.848C276.543 118.217 277.153 116.668 277.879 115.229C278.178 114.625 278.499 114.048 278.833 113.481C280.862 109.981 283.513 107.308 286.515 105.737C289.516 104.166 292.76 103.753 295.911 104.541C299.063 105.33 302.009 107.291 304.447 110.222C306.885 113.154 308.727 116.951 309.783 121.222C310.863 107.002 302.569 95.0902 294.587 86.3013C286.601 77.5168 277.527 67.9503 275.983 53.809C275.121 45.941 277.057 38.3162 280.582 32.1952C280.691 32.0092 280.8 31.8235 280.913 31.6426C285.204 24.5135 291.24 19.9356 297.815 18.8233C310.06 17.0242 321.954 26.187 330.85 38.2227C345.168 57.5873 353.823 87.3314 348.335 114.253Z" fill="#F2F2F2"/>
<path d="M325.319 83.2823C327.669 88.4512 329.473 94.0769 330.674 99.9818C331.691 105.26 332.143 110.723 332.016 116.189C331.796 127.426 329.35 138.407 325.502 148.187C322.525 155.603 318.897 162.456 314.704 168.586C312.651 170.552 310.597 172.473 308.542 174.349C308.528 174.358 308.514 174.376 308.5 174.385C308.401 174.475 308.302 174.565 308.21 174.655C307.786 175.041 307.362 175.428 306.941 175.81C306.941 175.81 307.399 176.127 307.151 175.984C307.077 175.94 307 175.901 306.926 175.857C307.692 166.983 306.942 157.979 304.739 149.599C302.536 141.219 298.944 133.707 294.265 127.693C289.574 121.771 283.96 117.5 277.879 115.229C278.178 114.625 278.499 114.048 278.833 113.481C281.182 114.412 283.467 115.634 285.663 117.134C293.513 122.463 299.94 131.224 303.994 142.119C307.632 152.012 309.198 163.167 308.507 174.274C308.858 173.825 309.21 173.365 309.551 172.91C316.042 164.354 321.808 154.533 325.71 143.199C329.095 133.601 330.759 122.973 330.555 112.252C330.237 100.561 326.942 89.7326 322.171 80.3059C317.061 70.217 310.654 61.291 303.813 53.5584C296.805 45.6241 289.138 38.9317 280.98 33.6306C280.796 33.5092 280.652 33.2925 280.578 33.0253C280.504 32.7581 280.506 32.4608 280.582 32.195C280.636 31.9564 280.755 31.7579 280.913 31.6424C280.994 31.593 281.081 31.5702 281.17 31.5755C281.258 31.5807 281.344 31.6141 281.421 31.673C282.429 32.3284 283.429 32.9929 284.421 33.686C292.685 39.4602 300.409 46.6633 307.416 55.1298C314.185 63.2878 320.557 72.6082 325.319 83.2823Z" fill="white"/>
<path d="M269.542 249.83C279.432 249.83 287.449 238.496 287.449 224.515C287.449 210.533 279.432 199.199 269.542 199.199C259.652 199.199 251.635 210.533 251.635 224.515C251.635 238.496 259.652 249.83 269.542 249.83Z" fill="#2F2E41"/>
<path d="M255.564 210.865C258.458 206.774 259.045 200.97 256.874 197.902C254.704 194.834 250.599 195.663 247.705 199.754C244.811 203.845 244.225 209.648 246.395 212.717C248.565 215.785 252.671 214.956 255.564 210.865Z" fill="#2F2E41"/>
<path d="M288.206 202.826C289.412 198.836 287.338 193.759 283.575 191.486C279.812 189.213 275.783 190.606 274.578 194.596C273.372 198.586 275.445 203.663 279.209 205.936C282.972 208.208 287 206.816 288.206 202.826Z" fill="#2F2E41"/>
<path d="M307.466 333.21C304.389 336.232 301.137 338.882 297.745 341.133L297.244 339.88L292.445 327.971L292.024 326.926L289.569 320.835L289.564 320.828L281.813 301.576L277.829 291.692L289.66 279.961L294.262 293.717L296.758 301.189L307.03 331.9L307.466 333.21Z" fill="#A0616A"/>
<path d="M296.895 286.761L295.411 283.475L288.85 268.925C287.954 266.098 286.302 263.889 284.256 262.78C282.21 261.672 279.937 261.755 277.934 263.011C275.931 264.268 274.362 266.595 273.571 269.484C272.78 272.373 272.831 275.587 273.713 278.423L277.768 298.849C277.882 299.427 278.083 299.963 278.356 300.423C278.629 300.882 278.969 301.253 279.352 301.512C279.735 301.77 280.153 301.909 280.578 301.92C281.002 301.931 281.423 301.814 281.813 301.576C281.828 301.568 281.839 301.561 281.854 301.554L294.262 293.717L295.599 292.873C295.989 292.624 296.337 292.26 296.619 291.805C296.901 291.35 297.11 290.814 297.233 290.235C297.356 289.655 297.39 289.045 297.331 288.446C297.273 287.846 297.124 287.272 296.895 286.761Z" fill="#8291E9"/>
<path d="M261.243 287.218L257.791 298.24L257.042 300.638L244.258 341.462L243.848 342.771C240.387 340.731 237.054 338.279 233.885 335.442L234.229 334.068L244.663 292.45L247.225 282.23L252.834 284.227L261.243 287.218Z" fill="#A0616A"/>
<path d="M283.445 240.863C287.471 230.452 284.765 217.397 277.4 211.706C270.035 206.014 260.801 209.841 256.775 220.252C252.749 230.664 255.455 243.718 262.82 249.41C270.185 255.101 279.419 251.275 283.445 240.863Z" fill="#A0616A"/>
<path d="M296.601 291.835C296.381 289.004 295.983 286.206 295.411 283.475C293.688 275.253 290.393 267.863 285.889 262.119C284.234 260.019 282.088 258.859 279.864 258.862H258.454C256.915 258.857 255.401 259.409 254.056 260.466C252.711 261.523 251.581 263.049 250.772 264.9C249.963 266.75 249.503 268.863 249.436 271.036C249.369 273.209 249.697 275.37 250.389 277.313L252.835 284.227L257.791 298.24L258.98 301.597L264.281 316.591L264.701 317.779L291.609 328.243L291.726 327.878C291.827 327.555 291.928 327.241 292.024 326.926C292.171 326.446 292.318 325.981 292.455 325.509C295.169 316.412 296.449 308.317 296.758 301.189C296.897 298.07 296.844 294.941 296.601 291.835Z" fill="#8291E9"/>
<path d="M262.337 262.784C260.357 261.473 258.089 261.324 256.031 262.37C253.973 263.416 252.292 265.572 251.356 268.367L249.448 272.439L243.069 286.052C242.832 286.557 242.675 287.128 242.608 287.727C242.542 288.325 242.567 288.937 242.683 289.521C242.799 290.104 243.002 290.645 243.279 291.108C243.556 291.57 243.901 291.942 244.289 292.2L244.663 292.45L257.042 300.638L257.922 301.217C258.255 301.439 258.614 301.567 258.98 301.597C259.47 301.652 259.961 301.531 260.408 301.246C260.799 300.999 261.147 300.636 261.429 300.181C261.711 299.727 261.921 299.192 262.043 298.612L266.326 278.351C267.256 275.538 267.357 272.319 266.61 269.401C265.862 266.482 264.325 264.103 262.337 262.784Z" fill="#8291E9"/>
<path d="M292.455 325.508C292.364 325.063 292.219 324.644 292.024 324.27C291.332 322.958 290.504 321.8 289.569 320.835L289.564 320.828C286.309 317.342 279.829 313.27 267.329 313.163H267.309C266.736 313.162 266.175 313.394 265.693 313.832C265.21 314.27 264.828 314.895 264.59 315.632L264.281 316.591L262.291 322.774C262.123 323.307 261.855 323.764 261.517 324.099C259.72 325.895 253.999 332.408 251.042 344.847C250.936 345.291 250.835 345.741 250.738 346.207C263.38 351.427 276.83 351.255 289.402 345.713L289.68 344.088L292.445 327.971L292.49 327.706C292.616 326.982 292.603 326.224 292.455 325.508Z" fill="#2F2E41"/>
<path d="M254.141 217.044C257.613 220.428 261.736 222.228 265.953 222.205C264.449 223.679 262.736 224.676 260.933 225.125C266.541 226.825 272.337 226.871 277.958 225.26C279.207 224.977 280.413 224.391 281.522 223.529C282.074 223.093 282.556 222.497 282.935 221.781C283.314 221.064 283.582 220.243 283.722 219.37C284.095 216.353 282.433 213.613 280.705 211.766C278.059 208.981 275.009 207.062 271.774 206.149C268.54 205.235 265.202 205.349 262.002 206.482C259.913 207.246 257.82 208.536 256.464 210.908C255.107 213.279 254.705 216.936 255.997 219.378L254.141 217.044Z" fill="#2F2E41"/>
<path d="M275.106 21.814H0.549805V23.3696H275.106V21.814Z" fill="#8291E9"/>
<path d="M9.90342 16.3383C11.7267 16.3383 13.2047 14.2489 13.2047 11.6714C13.2047 9.09387 11.7267 7.00439 9.90342 7.00439C8.08017 7.00439 6.60214 9.09387 6.60214 11.6714C6.60214 14.2489 8.08017 16.3383 9.90342 16.3383Z" fill="#8291E9"/>
<path d="M19.3946 16.3383C21.2178 16.3383 22.6959 14.2489 22.6959 11.6714C22.6959 9.09387 21.2178 7.00439 19.3946 7.00439C17.5714 7.00439 16.0933 9.09387 16.0933 11.6714C16.0933 14.2489 17.5714 16.3383 19.3946 16.3383Z" fill="#8291E9"/>
<path d="M28.8858 16.3383C30.709 16.3383 32.1871 14.2489 32.1871 11.6714C32.1871 9.09387 30.709 7.00439 28.8858 7.00439C27.0625 7.00439 25.5845 9.09387 25.5845 11.6714C25.5845 14.2489 27.0625 16.3383 28.8858 16.3383Z" fill="#8291E9"/>
<path d="M215.645 112.095H59.8165C59.3528 112.095 58.8935 111.966 58.4651 111.715C58.0366 111.464 57.6473 111.096 57.3194 110.633C56.9914 110.169 56.7313 109.619 56.5538 109.013C56.3764 108.407 56.285 107.758 56.285 107.102C56.285 106.447 56.3764 105.798 56.5538 105.192C56.7313 104.586 56.9914 104.036 57.3194 103.572C57.6473 103.109 58.0366 102.741 58.4651 102.49C58.8935 102.239 59.3528 102.11 59.8165 102.11H215.645C216.108 102.11 216.568 102.239 216.996 102.49C217.425 102.741 217.814 103.109 218.142 103.572C218.47 104.036 218.73 104.586 218.907 105.192C219.085 105.798 219.176 106.447 219.176 107.102C219.176 107.758 219.085 108.407 218.907 109.013C218.73 109.619 218.47 110.169 218.142 110.633C217.814 111.096 217.425 111.464 216.996 111.715C216.568 111.966 216.108 112.095 215.645 112.095Z" fill="#CCCCCC"/>
<path d="M215.645 165.764H59.8165C59.3528 165.764 58.8935 165.635 58.4651 165.384C58.0366 165.133 57.6473 164.765 57.3194 164.301C56.9914 163.838 56.7313 163.288 56.5538 162.682C56.3764 162.076 56.285 161.427 56.285 160.771C56.285 160.116 56.3764 159.466 56.5538 158.861C56.7313 158.255 56.9914 157.705 57.3194 157.241C57.6473 156.777 58.0366 156.41 58.4651 156.159C58.8935 155.908 59.3528 155.779 59.8165 155.779H215.645C216.108 155.779 216.568 155.908 216.996 156.159C217.425 156.41 217.814 156.777 218.142 157.241C218.47 157.705 218.73 158.255 218.907 158.861C219.085 159.466 219.176 160.116 219.176 160.771C219.176 161.427 219.085 162.076 218.907 162.682C218.73 163.288 218.47 163.838 218.142 164.301C217.814 164.765 217.425 165.133 216.996 165.384C216.568 165.635 216.108 165.764 215.645 165.764Z" fill="#E6E6E6"/>
<path d="M215.645 186.357H59.8165C58.8799 186.357 57.9817 185.831 57.3194 184.895C56.6571 183.959 56.285 182.689 56.285 181.365C56.285 180.041 56.6571 178.771 57.3194 177.835C57.9817 176.899 58.8799 176.373 59.8165 176.373H215.645C216.581 176.373 217.48 176.899 218.142 177.835C218.804 178.771 219.176 180.041 219.176 181.365C219.176 182.689 218.804 183.959 218.142 184.895C217.48 185.831 216.581 186.357 215.645 186.357Z" fill="#E6E6E6"/>
<path d="M190.262 90.877H85.1993C84.2627 90.877 83.3644 90.351 82.7021 89.4148C82.0399 88.4785 81.6678 87.2086 81.6678 85.8846C81.6678 84.5605 82.0399 83.2906 82.7021 82.3544C83.3644 81.4181 84.2627 80.8921 85.1993 80.8921H190.262C191.199 80.8921 192.097 81.4181 192.759 82.3544C193.421 83.2906 193.793 84.5605 193.793 85.8846C193.793 87.2086 193.421 88.4785 192.759 89.4148C192.097 90.351 191.199 90.877 190.262 90.877Z" fill="#CCCCCC"/>
<path d="M114.753 145.17H60.0146C59.5505 145.171 59.0908 145.042 58.6619 144.792C58.2329 144.541 57.8431 144.174 57.5147 143.71C57.1864 143.246 56.9259 142.696 56.7481 142.089C56.5704 141.483 56.4789 140.834 56.4789 140.178C56.4789 139.521 56.5704 138.872 56.7481 138.266C56.9259 137.66 57.1864 137.109 57.5147 136.645C57.8431 136.182 58.2329 135.814 58.6619 135.563C59.0908 135.313 59.5505 135.184 60.0146 135.185H114.753C115.69 135.185 116.588 135.711 117.25 136.647C117.913 137.584 118.285 138.853 118.285 140.178C118.285 141.502 117.913 142.771 117.25 143.708C116.588 144.644 115.69 145.17 114.753 145.17Z" fill="#E6E6E6"/>
<path d="M215.843 145.17H161.104C160.64 145.171 160.18 145.042 159.752 144.792C159.323 144.541 158.933 144.174 158.604 143.71C158.276 143.246 158.016 142.696 157.838 142.089C157.66 141.483 157.569 140.834 157.569 140.178C157.569 139.521 157.66 138.872 157.838 138.266C158.016 137.66 158.276 137.109 158.604 136.645C158.933 136.182 159.323 135.814 159.752 135.563C160.18 135.313 160.64 135.184 161.104 135.185H215.843C216.307 135.184 216.767 135.313 217.196 135.563C217.625 135.814 218.014 136.182 218.343 136.645C218.671 137.109 218.932 137.66 219.109 138.266C219.287 138.872 219.379 139.521 219.379 140.178C219.379 140.834 219.287 141.483 219.109 142.089C218.932 142.696 218.671 143.246 218.343 143.71C218.014 144.174 217.625 144.541 217.196 144.792C216.767 145.042 216.307 145.171 215.843 145.17Z" fill="#E6E6E6"/>
<path d="M271.804 0H3.84767C2.82681 0.00219554 1.84828 0.576956 1.12689 1.5981C0.405507 2.61924 0.000224136 4.00332 0 5.4465V262.133C0.00128609 263.575 0.407075 264.958 1.12838 265.977C1.84968 266.997 2.82761 267.571 3.84767 267.573H204.223C204.172 267.057 204.132 266.535 204.091 266.019H3.84767C3.11878 266.019 2.41992 265.609 1.90451 264.88C1.38909 264.152 1.09923 263.164 1.09856 262.133V5.4465C1.09903 4.41532 1.38867 3.42647 1.90398 2.69666C2.4193 1.96685 3.11825 1.55561 3.84767 1.55307H271.804C272.534 1.55415 273.234 1.96469 273.751 2.69462C274.267 3.42455 274.557 4.41423 274.558 5.4465V162.765C274.923 162.801 275.292 162.844 275.657 162.894V5.4465C275.656 4.00218 275.25 2.61722 274.528 1.59596C273.806 0.574694 272.826 0.000663753 271.804 0Z" fill="#8291E9"/>
<path d="M204.223 267.573C204.172 267.057 204.132 266.535 204.091 266.02C204.081 265.941 204.076 265.869 204.071 265.791C203.924 263.908 203.818 262.007 203.752 260.086C203.474 261.74 203.222 263.4 202.998 265.068C203.013 265.311 203.028 265.547 203.048 265.791C203.053 265.869 203.058 265.941 203.068 266.02C203.109 266.535 203.149 267.057 203.2 267.573C203.342 269.169 203.514 270.743 203.717 272.311C203.721 272.246 203.727 272.189 203.732 272.125C203.874 270.614 204.035 269.111 204.228 267.608C204.224 267.597 204.222 267.585 204.223 267.573ZM275.657 161.455C275.292 161.405 274.923 161.362 274.558 161.327C274.503 161.319 274.452 161.319 274.396 161.312C272.776 161.141 271.136 161.055 269.485 161.055C260.141 161.059 250.901 163.832 242.362 169.196C233.823 174.56 226.174 182.395 219.909 192.196C213.644 201.997 208.902 213.546 205.989 226.098C203.076 238.649 202.057 251.925 202.998 265.068C203.013 265.311 203.028 265.547 203.048 265.791C203.053 265.869 203.058 265.941 203.068 266.02C203.109 266.535 203.149 267.057 203.2 267.573C203.342 269.169 203.514 270.743 203.717 272.311C205.728 287.85 210.452 302.433 217.46 314.738C224.468 327.042 233.539 336.678 243.848 342.772C244.901 343.387 245.964 343.974 247.043 344.511C247.752 344.876 248.46 345.212 249.179 345.534C249.696 345.77 250.217 345.992 250.738 346.207C251.478 346.515 252.227 346.808 252.981 347.08C262.235 350.436 271.891 350.934 281.293 348.541C290.695 346.147 299.622 340.918 307.465 333.21H307.471C316.366 324.527 323.638 312.922 328.661 299.392C333.685 285.861 336.31 270.809 336.313 255.527C336.313 206.373 309.622 165.871 275.657 161.455ZM307.03 331.9C303.937 334.954 300.663 337.623 297.244 339.88C294.788 341.505 292.261 342.911 289.68 344.088C278.034 349.387 265.574 349.999 253.695 345.856C252.804 345.548 251.92 345.212 251.042 344.847C250.177 344.489 249.319 344.11 248.47 343.709C247.777 343.373 247.083 343.029 246.395 342.664C245.676 342.278 244.967 341.877 244.258 341.462C233.597 335.181 224.289 325.055 217.265 312.094C210.24 299.134 205.745 283.795 204.228 267.608C204.224 267.597 204.222 267.585 204.223 267.573C204.172 267.057 204.132 266.535 204.091 266.02C204.081 265.941 204.076 265.869 204.071 265.791C203.924 263.908 203.818 262.007 203.752 260.086C203.696 258.576 203.669 257.057 203.671 255.527C203.69 230.86 210.63 207.21 222.969 189.767C235.307 172.324 252.036 162.513 269.485 162.486C271.136 162.486 272.776 162.572 274.396 162.744C274.452 162.751 274.503 162.758 274.558 162.765C274.923 162.801 275.292 162.844 275.657 162.894C309.065 167.303 335.3 207.16 335.3 255.527C335.299 270.538 332.727 285.325 327.804 298.625C322.881 311.924 315.753 323.341 307.03 331.9ZM246.395 342.664C245.676 342.278 244.967 341.877 244.258 341.462C233.597 335.181 224.289 325.055 217.265 312.094C210.24 299.134 205.745 283.795 204.228 267.608C204.035 269.111 203.874 270.614 203.732 272.125C203.727 272.189 203.721 272.246 203.717 272.311C205.728 287.85 210.452 302.433 217.46 314.738C224.468 327.042 233.539 336.678 243.848 342.772C244.901 343.387 245.964 343.974 247.043 344.511C246.82 343.902 246.602 343.287 246.395 342.664ZM274.396 161.312C272.776 161.141 271.136 161.055 269.485 161.055C260.141 161.059 250.901 163.832 242.362 169.196C233.823 174.56 226.174 182.395 219.909 192.196C213.644 201.997 208.902 213.546 205.989 226.098C203.076 238.649 202.057 251.925 202.998 265.068C203.013 265.311 203.028 265.547 203.048 265.791C203.053 265.869 203.058 265.941 203.068 266.02H204.091C204.081 265.941 204.076 265.869 204.071 265.791C203.924 263.908 203.818 262.007 203.752 260.086C203.696 258.576 203.669 257.057 203.671 255.527C203.69 230.86 210.63 207.21 222.969 189.767C235.307 172.324 252.036 162.513 269.485 162.486C271.136 162.486 272.776 162.572 274.396 162.744C274.452 162.751 274.503 162.758 274.558 162.765L274.558 161.327C274.503 161.319 274.452 161.319 274.396 161.312Z" fill="#8291E9"/>
<path d="M323.805 185.236C344.331 185.731 344.328 228.894 323.804 229.386C303.279 228.89 303.282 185.727 323.805 185.236Z" fill="#8291E9"/>
<path d="M323.805 219.33C323.514 219.33 323.235 219.166 323.03 218.876C322.824 218.585 322.708 218.19 322.708 217.779V209.554C322.708 209.37 322.656 209.195 322.564 209.065C322.473 208.935 322.348 208.862 322.219 208.862H316.4C316.109 208.862 315.83 208.699 315.624 208.408C315.418 208.117 315.303 207.722 315.303 207.31C315.303 206.899 315.418 206.504 315.624 206.213C315.83 205.922 316.109 205.759 316.4 205.759H322.219C322.348 205.759 322.473 205.686 322.564 205.556C322.656 205.427 322.708 205.251 322.708 205.068V196.842C322.708 196.43 322.823 196.036 323.029 195.745C323.235 195.454 323.514 195.291 323.805 195.291C324.096 195.291 324.375 195.454 324.581 195.745C324.787 196.036 324.902 196.43 324.902 196.842V205.068C324.903 205.251 324.954 205.427 325.046 205.556C325.138 205.686 325.262 205.759 325.392 205.759H331.21C331.501 205.759 331.78 205.922 331.986 206.213C332.192 206.504 332.308 206.899 332.308 207.31C332.308 207.722 332.192 208.117 331.986 208.408C331.78 208.699 331.501 208.862 331.21 208.862H325.392C325.262 208.862 325.138 208.935 325.046 209.065C324.954 209.195 324.903 209.37 324.902 209.554V217.779C324.902 218.19 324.786 218.585 324.581 218.875C324.375 219.166 324.096 219.33 323.805 219.33Z" fill="white"/>
</g>
<defs>
<clipPath id="clip0_389_7528">
<rect width="350" height="350" fill="white"/>
</clipPath>
</defs>
</svg>
