<svg width="350" height="350" viewBox="0 0 350 350" fill="none" xmlns="http://www.w3.org/2000/svg">
<g clip-path="url(#clip0_381_3282)">
<path d="M125.545 201.428C137.54 169.679 160.42 145.3 184.64 147.649C166.774 176.883 156.356 214.683 155.23 254.362C154.832 269.667 155.449 286.753 148.695 298.213C144.493 305.344 138.07 308.797 131.755 309.522C125.44 310.246 119.126 308.529 112.895 306.82L111.383 307.518C110.808 271.007 113.551 233.178 125.545 201.428Z" fill="#F0F0F0"/>
<path d="M184.676 148.413C166.765 161.387 151.493 183.055 142.118 209.481C140.091 215.194 138.366 221.255 137.613 227.664C136.86 234.075 137.386 240.178 138.841 246.268C140.172 251.835 141.961 257.297 142.369 263.254C142.799 269.532 141.264 275.403 138.5 280.062C135.119 285.763 130.578 289.295 126.057 292.518C121.038 296.095 115.788 299.692 112.233 306.369C111.802 307.178 110.993 306.125 111.423 305.318C117.608 293.7 128.195 291.516 135.536 282.158C138.962 277.791 141.534 271.844 141.372 264.876C141.23 258.783 139.388 253.148 138.008 247.529C136.56 241.628 135.838 235.696 136.357 229.405C136.888 222.971 138.46 216.795 140.381 211.029C144.713 198.025 150.642 186.086 157.433 175.766C165.239 163.903 174.335 154.137 184.329 146.89C184.948 146.442 185.29 147.968 184.676 148.413Z" fill="white"/>
<path d="M144.864 200.649C142.119 197.628 140.176 193.237 139.383 188.26C138.591 183.282 139 178.043 140.537 173.478C140.85 172.555 141.817 173.244 141.504 174.168C140.067 178.415 139.686 183.296 140.431 187.928C141.175 192.561 142.995 196.641 145.563 199.431C146.121 200.038 145.419 201.253 144.864 200.649Z" fill="white"/>
<path d="M137.92 243.579C144.8 242.066 151.048 236.707 155.419 228.57C155.852 227.763 156.661 228.816 156.229 229.621C151.67 238.076 145.16 243.634 137.998 245.184C137.315 245.331 137.241 243.725 137.92 243.579Z" fill="white"/>
<path d="M165.767 165.884C166.668 167.386 167.802 168.528 169.068 169.207C170.335 169.886 171.693 170.082 173.022 169.776C173.703 169.616 173.777 171.222 173.101 171.381C171.631 171.709 170.131 171.49 168.731 170.745C167.331 169.999 166.073 168.748 165.068 167.102C164.965 166.959 164.902 166.762 164.891 166.551C164.881 166.34 164.925 166.132 165.013 165.967C165.106 165.807 165.237 165.708 165.379 165.692C165.52 165.677 165.66 165.745 165.767 165.884Z" fill="white"/>
<path d="M232.831 247.807C232.407 247.925 231.984 248.043 231.557 248.174C225.869 249.806 220.28 252.131 214.843 255.126C214.42 255.347 213.994 255.581 213.576 255.82C200.529 263.245 188.51 274.25 178.133 288.277C174.006 293.864 170.169 299.915 166.653 306.378C161.797 315.305 157.005 325.565 150.66 331.385C150.003 332.003 149.32 332.56 148.617 333.051L112.067 310.238C112.001 310.124 111.931 310.022 111.865 309.907L110.378 309.096C110.544 308.744 110.721 308.384 110.887 308.031C110.982 307.826 111.086 307.626 111.182 307.421C111.248 307.286 111.315 307.151 111.37 307.024C111.392 306.979 111.414 306.934 111.433 306.901C111.487 306.774 111.547 306.664 111.598 306.549C112.584 304.532 113.582 302.522 114.59 300.518C114.593 300.506 114.593 300.506 114.605 300.498C122.314 285.264 130.935 270.864 140.735 258.891C141.03 258.531 141.328 258.158 141.64 257.808C146.077 252.448 150.798 247.643 155.756 243.44C158.475 241.152 161.27 239.072 164.129 237.209C171.523 232.417 179.372 229.405 187.388 228.283C203.369 226.05 219.646 231.533 231.902 246.639C232.215 247.026 232.521 247.407 232.831 247.807Z" fill="#F0F0F0"/>
<path d="M232.556 248.453C213.064 242.586 192.201 246.051 174.142 258.658C170.238 261.383 166.435 264.659 163.27 269.094C160.103 273.531 158.081 278.88 156.807 285.061C155.641 290.711 154.884 296.693 152.827 301.819C150.658 307.222 147.083 310.518 143.012 311.735C138.032 313.223 132.993 311.93 128.094 310.407C122.655 308.717 117.024 306.831 111.513 308.942C110.846 309.198 110.621 307.624 111.288 307.369C120.874 303.696 130.201 311.544 139.808 310.723C144.29 310.34 148.723 307.922 151.381 302.211C153.706 297.217 154.49 291.049 155.637 285.313C156.841 279.29 158.638 273.899 161.57 269.347C164.569 264.69 168.295 261.183 172.136 258.32C180.798 251.862 190.308 247.7 199.86 245.613C210.839 243.213 222.01 243.656 232.889 246.924C233.562 247.126 233.225 248.655 232.556 248.453Z" fill="white"/>
<path d="M179.868 254.094C178.885 249.195 179.091 243.928 180.449 239.236C181.808 234.544 184.231 230.731 187.285 228.479C187.904 228.026 188.401 229.452 187.781 229.906C184.934 231.995 182.677 235.547 181.418 239.92C180.159 244.294 179.98 249.2 180.914 253.755C181.116 254.745 180.069 255.079 179.868 254.094Z" fill="white"/>
<path d="M157.147 282.079C163.245 287.104 170.379 288.486 177.124 285.949C177.793 285.696 178.018 287.27 177.35 287.522C170.327 290.143 162.906 288.682 156.567 283.432C155.963 282.93 156.546 281.58 157.147 282.079Z" fill="white"/>
<path d="M210.468 245.272C210.586 247.287 211.035 249.227 211.774 250.917C212.514 252.606 213.52 253.993 214.704 254.953C215.312 255.442 214.728 256.791 214.124 256.305C212.82 255.236 211.709 253.702 210.89 251.838C210.07 249.974 209.567 247.837 209.423 245.612C209.397 245.404 209.426 245.189 209.502 245.012C209.578 244.834 209.696 244.707 209.833 244.656C209.971 244.612 210.116 244.652 210.235 244.767C210.354 244.883 210.438 245.064 210.468 245.272Z" fill="white"/>
<path d="M163.204 285.443C158.085 248.2 151.687 235.784 151.687 235.784L149.243 232.931L146.303 229.495L146.317 229.054L145.62 228.697L145.456 228.506L145.188 228.196L145.145 228.265L145.053 228.407L131.752 221.604L114.876 212.978L107.061 197.694C105.788 195.205 104.15 193.193 102.274 191.816C100.398 190.439 98.3356 189.735 96.2485 189.758L71.2913 190.036C67.9167 190.073 64.6736 192.009 62.1995 195.462L45.7955 218.358L20.2349 236.727L20.1918 236.662L19.9234 236.951L15.974 239.792L16.137 241.069L13.6926 243.723C13.6926 243.723 7.29406 255.277 2.17522 289.931C0.873048 298.748 0.23207 317.663 0.000711201 340.971C-0.0109099 342.15 0.133361 343.321 0.425131 344.415C0.716902 345.51 1.15035 346.506 1.70028 347.346C2.25021 348.186 2.90564 348.854 3.62847 349.309C4.3513 349.765 5.1271 349.999 5.91077 350H142.435L159.475 350C160.258 349.999 161.033 349.765 161.756 349.309C162.478 348.854 163.133 348.188 163.683 347.349C164.233 346.51 164.666 345.515 164.959 344.422C165.251 343.328 165.396 342.159 165.385 340.98C165.159 315.617 164.518 295.005 163.204 285.443Z" fill="#3F3D56"/>
<path d="M180.721 32.4785C175.409 32.4785 170.315 35.6535 166.559 41.3051C162.804 46.9567 160.694 54.6218 160.694 62.6144C160.694 70.6069 162.804 78.2721 166.559 83.9237C170.315 89.5752 175.409 92.7502 180.721 92.7502H329.973C335.284 92.7502 340.378 89.5752 344.134 83.9237C347.89 78.2721 350 70.6069 350 62.6144C350 54.6218 347.89 46.9567 344.134 41.3051C340.378 35.6535 335.284 32.4785 329.973 32.4785H180.721Z" fill="#E5E5E5"/>
<path d="M180.721 38.5776C176.484 38.5776 172.421 41.1101 169.425 45.6179C166.43 50.1257 164.747 56.2396 164.747 62.6146C164.747 68.9896 166.43 75.1035 169.425 79.6113C172.421 84.1191 176.484 86.6515 180.721 86.6515H329.973C334.209 86.6515 338.272 84.1191 341.268 79.6113C344.264 75.1035 345.947 68.9896 345.947 62.6146C345.947 56.2396 344.264 50.1257 341.268 45.6179C338.272 41.1101 334.209 38.5776 329.973 38.5776H180.721Z" fill="white"/>
<path d="M87.6892 175.65C105.747 175.65 120.386 153.622 120.386 126.45C120.386 99.2783 105.747 77.251 87.6892 77.251C69.6314 77.251 54.9927 99.2783 54.9927 126.45C54.9927 153.622 69.6314 175.65 87.6892 175.65Z" fill="#9E616A"/>
<path d="M79.3247 173.241C79.1851 172.778 79.0458 172.314 78.9069 171.848C78.9604 171.85 79.0134 171.862 79.0669 171.864L79.3247 173.241Z" fill="#2F2E41"/>
<path d="M54.0835 79.4884C55.7372 77.5034 57.6699 75.6769 59.7843 75.7796C61.8985 75.8821 64.0425 78.7555 63.6045 81.8696C67.488 71.5229 73.6694 63.5651 81.0637 59.393C88.458 55.2209 96.5926 55.1011 104.04 59.0547C109.295 61.8444 114.448 67.4255 115.655 75.6113C115.965 77.7126 116.031 80.0167 116.903 81.723C118.003 83.8744 120.106 84.3611 121.838 83.6042C121.855 83.5967 121.873 83.589 121.89 83.5812C122.182 83.4309 122.498 83.4161 122.797 83.5388C123.095 83.6615 123.362 83.916 123.563 84.2695C123.764 84.6229 123.89 85.059 123.924 85.5213C123.959 85.9836 123.9 86.4509 123.757 86.8627L122.27 91.0354C124.144 91.664 126.091 91.6017 127.946 90.8537C128.254 90.7321 128.58 90.7569 128.878 90.9248C129.177 91.0926 129.433 91.3952 129.613 91.7912C129.792 92.1871 129.886 92.6569 129.881 93.1362C129.876 93.6154 129.773 94.0807 129.585 94.4681C124.683 104.597 116.492 111.137 108.133 111.06C102.192 111.006 96.1904 107.925 90.4087 109.981C88.1719 110.776 86.0819 112.315 84.2919 114.484C82.502 116.653 81.0574 119.398 80.0644 122.517C79.0713 125.636 78.5548 129.049 78.5529 132.508C78.551 135.966 79.0637 139.381 80.0534 142.503C78.2772 139.579 74.8437 140.271 73.0267 143.138C71.2099 146.004 70.7396 150.282 70.9227 154.233C71.2026 160.277 72.7762 165.972 74.4352 171.514C60.5265 170.855 47.3711 156.174 42.943 136.317C38.4964 116.377 43.1566 92.6046 54.0835 79.4884Z" fill="#2F2E41"/>
<path opacity="0.2" d="M32.1817 274.199L41.3523 349.279L46.8549 350L32.1817 274.199Z" fill="black"/>
<path opacity="0.2" d="M133.198 268.537L124.027 349.225L118.525 350L133.198 268.537Z" fill="black"/>
<path d="M61.9053 54.2206C60.1469 55.3254 58.3122 54.1147 57.5427 51.3419C56.7615 48.5266 57.4911 45.6688 59.2777 44.5463C61.0643 43.4237 62.8664 44.6375 63.6602 47.4981C64.4422 50.3158 63.7205 53.0801 61.9053 54.2206ZM58.537 39.0051L57.139 39.8835C56.7897 40.1004 56.3991 40.1121 56.0443 39.9163C55.6896 39.7205 55.3967 39.3316 55.2234 38.8263L55.1543 38.6228C53.65 34.5405 53.4777 29.579 54.645 23.884C55.7264 18.7752 56.1756 15.1823 55.2723 11.9272C54.2279 8.16382 51.9979 6.98492 49.154 8.69269C48.051 9.38572 47.7 9.37467 46.8321 10.6703C46.6432 10.9556 46.4182 11.1807 46.1703 11.3323C45.9224 11.4839 45.6568 11.5588 45.3893 11.5526C45.1306 11.548 44.8753 11.4651 44.6384 11.3088C44.4015 11.1525 44.188 10.926 44.0105 10.6429C43.6687 10.0973 43.4771 9.37673 43.4746 8.62682C43.4721 7.87691 43.6588 7.1535 43.997 6.60269C45.4559 4.3046 47.2156 2.48652 49.165 1.26318C55.2752 -2.57603 58.3512 3.09201 59.7588 8.16437C61.1355 13.1257 60.3611 17.729 59.1167 23.6908C58.0739 28.6446 58.1346 32.3153 59.3192 35.9652C59.4047 36.2411 59.4523 36.5402 59.4591 36.8445C59.4658 37.1488 59.4317 37.452 59.3586 37.7359C59.2856 38.0198 59.1752 38.2786 59.034 38.4967C58.8928 38.7148 58.7237 38.8877 58.537 39.0051Z" fill="#8291E9"/>
<path d="M213.689 76.9871H183.993C183.899 76.988 183.805 76.9609 183.718 76.9072C183.631 76.8536 183.551 76.7745 183.484 76.6744C183.417 76.5744 183.364 76.4554 183.328 76.3244C183.292 76.1933 183.273 76.0527 183.273 75.9108C183.273 75.7688 183.292 75.6283 183.328 75.4972C183.364 75.3661 183.417 75.2472 183.484 75.1471C183.551 75.0471 183.631 74.968 183.718 74.9143C183.805 74.8607 183.899 74.8335 183.993 74.8345H213.689C213.878 74.8364 214.058 74.9507 214.191 75.1523C214.324 75.3539 214.399 75.6266 214.399 75.9108C214.399 76.195 214.324 76.4676 214.191 76.6692C214.058 76.8709 213.878 76.9851 213.689 76.9871Z" fill="#8291E9"/>
<path d="M251.359 77.3459H221.664C221.569 77.3469 221.476 77.3198 221.389 77.2661C221.301 77.2125 221.222 77.1334 221.155 77.0333C221.088 76.9333 221.035 76.8143 220.998 76.6832C220.962 76.5522 220.944 76.4116 220.944 76.2697C220.944 76.1277 220.962 75.9871 220.998 75.8561C221.035 75.725 221.088 75.6061 221.155 75.506C221.222 75.406 221.301 75.3269 221.389 75.2732C221.476 75.2195 221.569 75.1924 221.664 75.1934H251.359C251.454 75.1924 251.547 75.2195 251.634 75.2732C251.722 75.3269 251.801 75.406 251.868 75.506C251.935 75.6061 251.988 75.725 252.025 75.8561C252.061 75.9871 252.079 76.1277 252.079 76.2697C252.079 76.4116 252.061 76.5522 252.025 76.6832C251.988 76.8143 251.935 76.9333 251.868 77.0333C251.801 77.1334 251.722 77.2125 251.634 77.2661C251.547 77.3198 251.454 77.3469 251.359 77.3459Z" fill="#8291E9"/>
<path d="M289.03 77.7048H259.334C259.145 77.7029 258.965 77.5886 258.832 77.387C258.699 77.1854 258.624 76.9127 258.624 76.6285C258.624 76.3444 258.699 76.0717 258.832 75.8701C258.965 75.6684 259.145 75.5542 259.334 75.5523H289.03C289.124 75.5513 289.218 75.5784 289.305 75.6321C289.392 75.6857 289.472 75.7649 289.539 75.8649C289.606 75.9649 289.659 76.0839 289.695 76.215C289.731 76.346 289.75 76.4866 289.75 76.6285C289.75 76.7705 289.731 76.9111 289.695 77.0421C289.659 77.1732 289.606 77.2922 289.539 77.3922C289.472 77.4922 289.392 77.5714 289.305 77.625C289.218 77.6787 289.124 77.7058 289.03 77.7048Z" fill="#8291E9"/>
<path d="M326.7 78.0637H297.005C296.816 78.0618 296.635 77.9475 296.502 77.7459C296.369 77.5442 296.294 77.2716 296.294 76.9874C296.294 76.7032 296.369 76.4306 296.502 76.2289C296.635 76.0273 296.816 75.9131 297.005 75.9111H326.7C326.889 75.9131 327.07 76.0273 327.203 76.2289C327.336 76.4306 327.411 76.7032 327.411 76.9874C327.411 77.2716 327.336 77.5442 327.203 77.7459C327.07 77.9475 326.889 78.0618 326.7 78.0637Z" fill="#8291E9"/>
<path d="M198.776 67.0823C201.824 67.0823 204.295 63.3641 204.295 58.7775C204.295 54.1909 201.824 50.4727 198.776 50.4727C195.727 50.4727 193.256 54.1909 193.256 58.7775C193.256 63.3641 195.727 67.0823 198.776 67.0823Z" fill="#8291E9"/>
<path d="M236.674 67.0823C239.722 67.0823 242.193 63.3641 242.193 58.7775C242.193 54.1909 239.722 50.4727 236.674 50.4727C233.626 50.4727 231.155 54.1909 231.155 58.7775C231.155 63.3641 233.626 67.0823 236.674 67.0823Z" fill="#8291E9"/>
<path d="M274.572 67.0823C277.62 67.0823 280.091 63.3641 280.091 58.7775C280.091 54.1909 277.62 50.4727 274.572 50.4727C271.524 50.4727 269.053 54.1909 269.053 58.7775C269.053 63.3641 271.524 67.0823 274.572 67.0823Z" fill="#8291E9"/>
<path d="M312.47 67.0823C315.518 67.0823 317.989 63.3641 317.989 58.7775C317.989 54.1909 315.518 50.4727 312.47 50.4727C309.422 50.4727 306.951 54.1909 306.951 58.7775C306.951 63.3641 309.422 67.0823 312.47 67.0823Z" fill="#8291E9"/>
</g>
<defs>
<clipPath id="clip0_381_3282">
<rect width="350" height="350" fill="white"/>
</clipPath>
</defs>
</svg>
