<svg width="350" height="350" viewBox="0 0 350 350" fill="none" xmlns="http://www.w3.org/2000/svg">
<g clip-path="url(#clip0_381_3234)">
<path d="M69.7352 350C108.249 350 139.47 346.592 139.47 342.388C139.47 338.183 108.249 334.775 69.7352 334.775C31.2215 334.775 0 338.183 0 342.388C0 346.592 31.2215 350 69.7352 350Z" fill="#E6E6E6"/>
<path d="M53.3043 77.6588C65.4403 70.2397 80.5559 74.9404 95.3179 78.2028C95.4553 74.252 97.1204 69.4436 95.3762 66.6873C93.2571 63.3386 93.4522 59.8201 94.7274 56.2813C97.9881 47.232 93.3164 37.6032 88.5994 29.5968C87.5362 27.7963 86.1925 26.3816 84.6775 25.4677C83.1625 24.5537 81.5189 24.1663 79.8801 24.3368L71.1422 25.2339C69.016 25.4522 66.9868 26.5986 65.3262 28.5197C63.6657 30.4408 62.4529 33.0451 61.8503 35.9839C59.7638 40.0624 58.6471 44.1296 59.3502 48.1755C56.2251 51.2451 55.7 54.9504 57.1043 59.1275C58.2951 61.7575 58.2825 64.3176 57.0502 66.8069C55.4318 69.9805 54.1923 73.5191 53.3824 77.2778L53.3043 77.6588Z" fill="#2F2E41"/>
<path d="M341.706 302.569H94.3593C92.1596 302.569 90.0501 301.313 88.4947 299.078C86.9394 296.842 86.0656 293.81 86.0656 290.649C175.729 275.671 263.707 275.671 350 290.649C350 293.81 349.126 296.842 347.571 299.078C346.015 301.313 343.906 302.569 341.706 302.569Z" fill="#2F2E41"/>
<path d="M350 291.35L86.0656 290.649L116.655 216.672L116.801 216.321V53.2844C116.801 51.3055 117.072 49.346 117.599 47.5176C118.126 45.6893 118.898 44.0281 119.872 42.6288C120.845 41.2295 122.001 40.1195 123.273 39.3623C124.545 38.6051 125.908 38.2154 127.285 38.2156H307.317C308.694 38.2154 310.057 38.6051 311.329 39.3623C312.601 40.1195 313.757 41.2295 314.73 42.6288C315.704 44.0281 316.476 45.6893 317.003 47.5176C317.53 49.346 317.801 51.3055 317.801 53.2844V217.443L350 291.35Z" fill="#3F3D56"/>
<path d="M127.046 48.7336C126.141 48.7351 125.273 49.2527 124.632 50.1729C123.992 51.0931 123.632 52.3407 123.631 53.6421V202.297C123.632 203.599 123.992 204.846 124.633 205.766C125.273 206.687 126.141 207.204 127.046 207.206H309.019C309.925 207.204 310.793 206.686 311.433 205.766C312.073 204.846 312.433 203.599 312.434 202.297V53.6421C312.433 52.3407 312.073 51.0932 311.433 50.173C310.793 49.2528 309.925 48.7352 309.019 48.7336H127.046Z" fill="white"/>
<path d="M127.809 226.839C127.529 226.84 127.255 226.956 127.019 227.173C126.784 227.39 126.596 227.699 126.479 228.064L117.054 257.514C116.951 257.835 116.906 258.187 116.923 258.539C116.94 258.891 117.018 259.231 117.151 259.528C117.283 259.825 117.465 260.07 117.681 260.239C117.896 260.408 118.138 260.497 118.383 260.497H316.595C316.845 260.497 317.09 260.405 317.308 260.231C317.526 260.056 317.709 259.804 317.84 259.499C317.971 259.194 318.046 258.846 318.057 258.488C318.068 258.13 318.015 257.773 317.904 257.453L307.659 228.002C307.538 227.652 307.351 227.358 307.12 227.152C306.889 226.947 306.622 226.838 306.35 226.839H127.809Z" fill="#2F2E41"/>
<path d="M217.301 46.2793C218.513 46.2793 219.496 44.8666 219.496 43.1239C219.496 41.3812 218.513 39.9685 217.301 39.9685C216.088 39.9685 215.106 41.3812 215.106 43.1239C215.106 44.8666 216.088 46.2793 217.301 46.2793Z" fill="white"/>
<path d="M197.818 266.107C197.497 266.107 197.184 266.26 196.929 266.541C196.673 266.823 196.489 267.217 196.405 267.663L194.041 280.285C193.983 280.597 193.975 280.924 194.018 281.24C194.062 281.557 194.156 281.855 194.292 282.111C194.429 282.368 194.605 282.575 194.806 282.718C195.008 282.861 195.229 282.936 195.454 282.936H240.417C240.651 282.936 240.881 282.855 241.088 282.702C241.295 282.548 241.474 282.325 241.61 282.052C241.745 281.779 241.833 281.463 241.866 281.131C241.899 280.799 241.876 280.461 241.8 280.144L238.76 267.522C238.661 267.109 238.474 266.751 238.226 266.497C237.978 266.243 237.682 266.107 237.377 266.107H197.818Z" fill="#2F2E41"/>
<path d="M317.801 213.867V216.672H116.655L116.806 216.322V213.867H317.801Z" fill="#2F2E41"/>
<path d="M312.191 98.1685C331.051 98.1685 346.341 76.1927 346.341 49.0843C346.341 21.9758 331.051 0 312.191 0C293.33 0 278.04 21.9758 278.04 49.0843C278.04 76.1927 293.33 98.1685 312.191 98.1685Z" fill="#8291E9"/>
<path d="M326.339 70.4711H298.042C297.525 70.4704 297.029 70.1746 296.663 69.6488C296.297 69.1229 296.092 68.4099 296.091 67.6663V43.1241C296.092 42.3805 296.297 41.6676 296.663 41.1417C297.029 40.6159 297.525 40.3201 298.042 40.3193H326.339C326.856 40.3201 327.352 40.6159 327.718 41.1417C328.084 41.6676 328.29 42.3805 328.29 43.1241V67.6663C328.29 68.4099 328.084 69.1229 327.718 69.6488C327.352 70.1746 326.856 70.4704 326.339 70.4711ZM298.042 43.1242V67.6663H326.34L326.339 43.1241L298.042 43.1242Z" fill="white"/>
<path d="M320.972 43.124H303.409V31.9047C303.409 23.7785 307.102 17.8806 312.191 17.8806C317.279 17.8806 320.972 23.7785 320.972 31.9047L320.972 43.124ZM305.36 40.3191H319.021V31.9047C319.021 25.299 316.212 20.6854 312.191 20.6854C308.169 20.6854 305.36 25.2991 305.36 31.9047L305.36 40.3191Z" fill="white"/>
<path d="M312.191 57.4988C313.268 57.4988 314.142 56.243 314.142 54.694C314.142 53.1449 313.268 51.8892 312.191 51.8892C311.113 51.8892 310.239 53.1449 310.239 54.694C310.239 56.243 311.113 57.4988 312.191 57.4988Z" fill="white"/>
<path d="M288.351 156.783H147.715C147.025 156.782 146.363 156.387 145.874 155.686C145.386 154.984 145.111 154.033 145.111 153.04V102.899C145.111 101.907 145.386 100.955 145.874 100.254C146.363 99.5519 147.025 99.1572 147.715 99.156H288.351C289.041 99.1572 289.703 99.5519 290.191 100.254C290.679 100.955 290.954 101.907 290.955 102.899V153.04C290.954 154.033 290.679 154.984 290.191 155.686C289.703 156.387 289.041 156.782 288.351 156.783ZM147.715 100.653C147.301 100.654 146.904 100.891 146.611 101.312C146.318 101.733 146.153 102.304 146.152 102.899V153.04C146.153 153.636 146.318 154.207 146.611 154.628C146.904 155.049 147.301 155.285 147.715 155.286H288.351C288.765 155.285 289.162 155.049 289.455 154.628C289.748 154.207 289.913 153.636 289.913 153.04V102.899C289.913 102.304 289.748 101.733 289.455 101.312C289.162 100.891 288.765 100.654 288.351 100.653L147.715 100.653Z" fill="#E6E6E6"/>
<path d="M169.567 141.294C175.426 141.294 180.176 134.467 180.176 126.046C180.176 117.625 175.426 110.798 169.567 110.798C163.708 110.798 158.958 117.625 158.958 126.046C158.958 134.467 163.708 141.294 169.567 141.294Z" fill="#E6E6E6"/>
<path d="M194.068 115.88C193.836 115.88 193.605 115.945 193.391 116.073C193.176 116.2 192.981 116.387 192.816 116.623C192.652 116.859 192.521 117.14 192.432 117.448C192.343 117.757 192.297 118.088 192.297 118.422C192.297 118.756 192.343 119.087 192.432 119.395C192.521 119.704 192.652 119.984 192.816 120.22C192.981 120.456 193.176 120.643 193.391 120.771C193.605 120.898 193.836 120.964 194.068 120.963H277.423C277.892 120.963 278.341 120.695 278.673 120.219C279.005 119.742 279.191 119.096 279.191 118.422C279.191 117.748 279.005 117.101 278.673 116.625C278.341 116.148 277.892 115.88 277.423 115.88H194.068Z" fill="#E6E6E6"/>
<path d="M194.068 131.128C193.599 131.128 193.15 131.396 192.818 131.873C192.486 132.349 192.3 132.996 192.3 133.67C192.3 134.344 192.486 134.99 192.818 135.467C193.15 135.943 193.599 136.211 194.068 136.211H229.936C230.405 136.211 230.855 135.943 231.186 135.467C231.518 134.99 231.704 134.344 231.704 133.67C231.704 132.996 231.518 132.349 231.186 131.873C230.855 131.396 230.405 131.128 229.936 131.128H194.068Z" fill="#E6E6E6"/>
<path d="M116.309 132.156L90.311 152.022L89.9819 135.467C98.4673 133.431 106.54 129.887 114.005 124.116L116.724 114.461C117.02 113.408 117.502 112.485 118.121 111.781C118.741 111.078 119.477 110.617 120.258 110.446C121.038 110.275 121.836 110.398 122.574 110.804C123.311 111.21 123.963 111.885 124.464 112.762C125.197 114.045 125.564 115.681 125.489 117.338C125.415 118.995 124.905 120.55 124.063 121.687L116.309 132.156Z" fill="#FFB8B8"/>
<path d="M52.7861 246.853C52.5964 245.853 52.5562 244.807 52.6679 243.783C52.7797 242.76 53.041 241.781 53.4346 240.913L59.1455 228.316C60.4963 225.337 62.5689 223.184 64.9613 222.277C67.3537 221.37 69.8952 221.773 72.0928 223.407C69.6927 229.279 70.0273 234.43 72.9218 238.906C68.4285 242.059 64.2756 246.128 60.5918 250.988C59.9193 251.647 59.147 252.065 58.3392 252.208C57.5314 252.352 56.7115 252.215 55.9478 251.811C55.1841 251.406 54.4988 250.745 53.9488 249.883C53.3988 249.02 53.0002 247.982 52.7861 246.853Z" fill="#2F2E41"/>
<path d="M117.493 230.382C116.628 232.452 115.409 234.168 113.95 235.366C112.492 236.563 110.843 237.202 109.164 237.22L71.2242 237.633L69.5788 223.916L86.362 216.821L72.2114 201.213L87.6783 175.198L115.771 212.832C117.413 215.031 118.48 217.974 118.793 221.169C119.107 224.363 118.647 227.616 117.493 230.382Z" fill="#2F2E41"/>
<path d="M65.3007 324.19H56.4154C48.4378 245.593 40.3173 166.777 64.3134 137.359L92.6146 143.981L88.9947 178.509L73.1987 204.524L65.3007 324.19Z" fill="#2F2E41"/>
<path d="M73.1112 341.994C72.4157 342.267 71.6878 342.325 70.9756 342.164C70.2633 342.004 69.5828 341.628 68.9787 341.063L59.3312 339.199C57.2581 337.258 55.7606 334.279 55.1293 330.84C54.498 327.402 54.7778 323.749 55.9146 320.59C60.0002 324.039 63.5841 323.558 66.6986 319.398C68.8992 325.784 72.525 325.395 75.9878 330.775C76.4463 331.742 76.7374 332.852 76.837 334.013C76.9366 335.174 76.8418 336.352 76.5603 337.45C76.2789 338.547 75.8191 339.533 75.2191 340.323C74.6192 341.114 73.8965 341.687 73.1112 341.994Z" fill="#2F2E41"/>
<path d="M86.362 84.8574L69.9078 79.1816C72.6406 71.1417 72.8656 62.1956 71.5532 52.6942L82.7421 52.2212C83.0927 64.0365 84.1533 75.075 86.362 84.8574Z" fill="#FFB8B8"/>
<path d="M90.8842 158.222C78.9062 169.954 70.4428 158.624 63.9844 141.143C64.8818 130.447 63.4287 117.646 60.7374 103.737C59.5405 97.602 59.9873 91.0451 61.9897 85.3607C63.9921 79.6763 67.4045 75.2775 71.5532 73.0327L85.7038 81.5465C97.7193 95.6234 100.084 110.871 95.5763 126.953L90.8842 158.222Z" fill="#8291E9"/>
<path d="M56.4154 96.6823L43.2521 106.615L66.617 126.481L69.8681 138.007C70.0851 138.776 70.1908 139.601 70.1787 140.431C70.1667 141.261 70.0372 142.078 69.7981 142.834C69.5591 143.59 69.2154 144.268 68.7881 144.826C68.3609 145.385 67.8589 145.812 67.3129 146.083C66.6922 146.39 66.0305 146.487 65.3794 146.366C64.7283 146.245 64.1056 145.908 63.5601 145.383C63.0145 144.858 62.5609 144.159 62.2348 143.34C61.9087 142.521 61.719 141.605 61.6804 140.663L61.3517 132.629L31.6552 118.544C30.6546 118.07 29.7423 117.274 28.9874 116.218C28.2324 115.161 27.6546 113.872 27.2977 112.447C26.7775 110.37 26.7511 108.104 27.2225 106.003C27.6938 103.902 28.6365 102.085 29.9029 100.836L53.7828 77.2898L56.4154 96.6823Z" fill="#FFB8B8"/>
<path d="M69.5788 98.5741C64.0888 95.1161 59.0967 98.8726 52.7955 101.885L51.8083 76.8166C58.0651 72.0236 64.0305 70.7313 69.5788 74.4517L69.5788 98.5741Z" fill="#8291E9"/>
<path d="M76.1459 64.6385C81.9479 64.6385 86.6513 57.8783 86.6513 49.5392C86.6513 41.2001 81.9479 34.4399 76.1459 34.4399C70.344 34.4399 65.6406 41.2001 65.6406 49.5392C65.6406 57.8783 70.344 64.6385 76.1459 64.6385Z" fill="#FFB8B8"/>
<path d="M88.7137 47.6341C78.3125 49.0983 70.3869 46.6533 65.3216 39.6918V34.0854H87.831L88.7137 47.6341Z" fill="#2F2E41"/>
</g>
<defs>
<clipPath id="clip0_381_3234">
<rect width="350" height="350" fill="white"/>
</clipPath>
</defs>
</svg>
