<svg width="350" height="350" viewBox="0 0 350 350" fill="none" xmlns="http://www.w3.org/2000/svg">
<g clip-path="url(#clip0_386_7072)">
<path d="M66.7559 336.527C65.1975 336.624 64.3362 334.699 65.5153 333.577L65.6325 333.114C65.6171 333.077 65.6016 333.04 65.5859 333.003C64.01 329.267 60.3968 336.219 58.8342 339.96C57.4473 343.28 53.9537 339.68 53.5189 343.191C53.324 344.741 53.4117 346.319 53.7576 347.84C50.5079 340.784 48.7978 333.079 48.7978 325.33C48.7978 323.383 48.9051 321.436 49.1243 319.494C49.3046 317.906 49.553 316.327 49.8746 314.762C51.6139 306.307 55.3801 298.253 60.8124 291.526C63.4238 290.107 65.6016 287.889 66.9171 285.23C67.3897 284.271 63.9391 283.275 64.1145 282.224C63.8173 282.263 66.8148 277.728 67.0389 277.452C66.6247 276.827 65.8835 276.517 65.4311 275.907C63.1815 272.875 60.0821 273.405 58.464 277.525C55.0075 279.259 54.9741 282.135 57.095 284.901C58.4443 286.66 58.6297 289.041 59.8136 290.925C59.6918 291.08 59.5651 291.23 59.4433 291.385C57.2097 294.233 55.2779 297.294 53.6493 300.51C54.1096 296.936 53.4301 292.63 52.2716 289.855C50.9529 286.693 48.4812 284.03 46.3046 281.296C43.6901 278.012 38.3289 279.445 37.8682 283.608C37.8638 283.648 37.8594 283.688 37.8552 283.729C38.1785 283.91 38.4952 284.103 38.8046 284.306C40.5693 285.466 39.9594 288.185 37.8684 288.506L37.8211 288.513C37.938 289.671 41.9468 296.092 42.2391 297.22C39.4468 307.955 41.6662 306.591 50.2741 306.767C50.4641 306.864 50.6492 306.96 50.8393 307.052C49.9671 309.493 49.2704 311.997 48.754 314.535C48.2912 316.777 47.9696 319.044 47.7893 321.32C47.5652 324.192 47.5847 327.078 47.8283 329.945L47.8137 329.844C47.195 326.686 45.4702 323.737 42.966 321.693C39.2354 318.647 33.9648 317.525 29.9401 315.076C28.0028 313.898 25.5202 315.421 25.8583 317.653L25.8748 317.76C26.474 318.002 27.0587 318.283 27.6238 318.598C27.9471 318.779 28.2639 318.972 28.5733 319.175C30.338 320.336 29.7281 323.055 27.6371 323.376L27.5897 323.383C27.5556 323.388 27.5264 323.393 27.4923 323.398C28.5203 325.824 35.9203 323.772 37.7132 325.714C39.4592 335.084 40.9906 340.278 49.0122 337.549H49.0171C49.8941 341.346 51.1754 345.055 52.8222 348.591H66.4153C66.464 348.441 66.5079 348.286 66.5517 348.135C65.2947 348.213 64.028 348.14 62.7904 347.913C63.799 346.683 64.8075 345.443 65.816 344.213C65.8404 344.188 65.8599 344.164 65.8793 344.14C66.3909 343.51 66.9074 342.886 67.4189 342.256L67.4192 342.255C67.4512 340.323 67.2177 338.396 66.7559 336.527Z" fill="#F2F2F2"/>
<path d="M176.074 19.4056C174.825 24.634 181.354 23.9045 178.337 33.6522C178.337 39.2476 171.143 38.9009 165.513 38.9009H143.638C139.854 39.1386 131.768 38.1308 132.323 34.402L135.341 26.9038C136.457 22.69 131.478 22.4086 131.55 18.0516C131.627 13.3807 136.142 9.02432 137.604 5.90882C139.057 2.8102 141.606 0.0903448 148.164 0.66008C150.409 0.855094 157.233 0.0946038 159.424 0.617888C163.355 1.55653 167.059 3.25776 170.326 5.62388C172.046 7.32599 173.441 9.34296 174.43 11.585C175.357 13.6845 175.923 15.9864 176.051 18.4008V18.4233C176.066 18.7532 176.074 19.0757 176.074 19.4056Z" fill="#2F2E41"/>
<path d="M134.998 332.159L142.218 332.329L146.242 300.089L135.588 299.838L134.998 332.159Z" fill="#FFB6B6"/>
<path d="M159.767 347.131C159.767 348.343 158.901 349.326 157.834 349.326H143.504C143.504 349.326 142.094 343.691 136.344 341.266L135.948 349.326H128.555L129.451 336.366C129.451 336.366 127.474 329.433 131.58 325.889C135.687 322.345 132.361 322.838 132.361 322.838L133.976 314.817L145.147 316.123L145.229 328.714L150.65 341.212L158.601 345.116C159.309 345.463 159.767 346.255 159.767 347.131Z" fill="#2F2E41"/>
<path d="M94.5299 296.534L99.847 301.391L124.25 279.781L116.404 272.613L94.5299 296.534Z" fill="#FFB6B6"/>
<path d="M103.23 324.021C102.427 324.933 101.124 325.105 100.321 324.406L89.5443 315.017C89.5443 315.017 92.2198 309.856 89.5037 304.266L83.8614 310.067L78.302 305.224L87.5683 296.064C87.5683 296.064 90.6782 289.554 96.1166 289.58C101.555 289.605 98.7264 287.797 98.7264 287.797L105.26 282.823L112.795 291.123L104.508 300.646L100.298 313.597L103.69 321.742C103.991 322.467 103.811 323.363 103.23 324.021Z" fill="#2F2E41"/>
<path d="M136.095 109.384C136.095 109.384 137.604 120.631 128.552 129.629L159.479 141.626L182.109 133.378C182.109 133.378 173.811 116.132 177.583 110.883L136.095 109.384Z" fill="#FFB6B6"/>
<path d="M167.776 40.4004L145.524 42.2749C135.658 48.8131 129.836 59.9086 130.088 71.6927L130.173 75.6382C130.314 82.2581 130.981 88.8527 132.06 95.3867C132.97 100.9 137.604 119.881 127.797 129.629L179.091 122.131C179.091 122.131 174.565 110.134 180.764 96.0401C184.662 87.1793 182.876 76.8132 181.847 67.1968L180.223 52.0226L167.776 40.4004Z" fill="#8291E9"/>
<path d="M256.285 70.7863C254.723 71.4672 253.446 72.4422 252.587 73.5126L237.299 79.065L240.17 86.2186L255.368 79.816C256.743 79.9124 258.329 79.6386 259.891 78.9577C263.458 77.4022 265.542 74.312 264.547 72.0556C263.551 69.7991 259.852 69.2309 256.285 70.7863Z" fill="#FFB6B6"/>
<path d="M173.057 50.5229C173.057 50.5229 177.737 46.024 184.826 49.7731C191.915 53.5222 214.545 83.515 214.545 83.515L246.98 73.7673L250.969 83.515L210.019 99.2612L173.057 65.1267V50.5229Z" fill="#8291E9"/>
<path d="M158.854 36.0093C167.532 36.0093 174.567 29.0162 174.567 20.3899C174.567 11.7635 167.532 4.77051 158.854 4.77051C150.176 4.77051 143.141 11.7635 143.141 20.3899C143.141 29.0162 150.176 36.0093 158.854 36.0093Z" fill="#FFB6B6"/>
<path d="M178.337 17.9058C177.741 18.7606 174.578 15.6333 169.72 15.2884C168.483 15.1984 165.695 19.3454 162.496 19.4054C160.377 19.4429 159.072 19.4279 156.462 19.4054C153.376 19.3754 152.532 19.3154 151.936 18.6556C150.782 17.3734 151.732 15.094 151.181 14.9065C150.721 14.749 149.529 16.1587 148.918 17.9058C147.636 21.5724 152.237 26.6787 152.69 31.4025C153.173 36.4938 148.421 26.7386 148.918 31.4025C149.477 36.6513 151.476 36.2539 151.453 38.1509C151.445 38.4359 151.362 38.6833 151.181 38.9007C151.023 39.0957 150.865 39.1707 148.164 39.6506C144.936 40.2279 143.314 40.5128 142.884 40.4004C141.775 40.1155 140.651 38.5333 139.867 37.4011C138.569 35.549 139.489 37.4161 139.867 35.1516C140.229 32.9621 141.36 32.6772 141.375 30.6527C141.39 28.1033 139.603 27.331 138.358 24.6542C136.057 19.7053 138.305 13.9767 139.112 11.9072C139.5 10.9148 140.203 9.65868 141.435 7.58334C142.424 5.91726 143.737 4.4496 145.339 3.34992C147.739 1.70174 150.526 0.572405 153.54 0.12492C155.191 -0.120182 156.874 0.00853247 158.497 0.396159L162.701 1.40026C164.468 1.82231 166.134 2.58725 167.603 3.65115C168.972 3.65568 170.159 4.53525 170.628 5.81363C170.677 5.94741 170.722 6.02534 170.759 6.01391C178.337 3.65921 178.332 10.6334 178.249 14.9901C178.24 15.436 178.256 15.8306 178.314 16.1512V16.1737C178.465 17.036 178.503 17.6658 178.337 17.9058Z" fill="#2F2E41"/>
<path d="M179.846 125.13C179.846 125.13 171.548 142.376 128.552 127.379C122.624 127.037 119.181 185.673 127.043 215.108C134.681 243.705 133.455 307.711 133.455 307.711L147.033 306.961L157.97 220.357L155.33 179.492L162.873 230.48L108.562 276.968L116.86 289.715L189.275 239.477C189.275 239.477 196.818 149.499 179.846 125.13Z" fill="#2F2E41"/>
<path d="M0 349.108C0 349.603 0.399814 350 0.89769 350H273.427C273.925 350 274.325 349.603 274.325 349.108C274.325 348.613 273.925 348.215 273.427 348.215H0.89769C0.399814 348.215 0 348.613 0 349.108Z" fill="#CCCCCC"/>
<path d="M295.4 157.037L311.29 149.554C304.773 158.595 299.157 172.716 296.15 183.952C291.059 173.486 282.853 160.679 274.73 153.029L291.524 157.324C281.176 106.908 242.252 70.7146 197.678 70.7146L197.047 68.8936C243.605 68.8936 284.833 104.585 295.4 157.037Z" fill="#3F3D56"/>
<path d="M241.874 233.854H342.277C346.535 233.854 350 230.41 350 226.177C350 221.944 346.535 218.5 342.277 218.5H241.874C237.616 218.5 234.151 221.944 234.151 226.177C234.151 230.41 237.616 233.854 241.874 233.854Z" fill="#8291E9"/>
<path d="M213.288 70.7863C211.727 71.4672 210.45 72.4422 209.59 73.5126L194.303 79.065L197.174 86.2186L212.372 79.816C213.746 79.9124 215.333 79.6386 216.894 78.9577C220.462 77.4022 222.546 74.312 221.55 72.0556C220.554 69.7991 216.855 69.2309 213.288 70.7863Z" fill="#FFB6B6"/>
<path d="M130.06 56.7602C130.06 50.8585 136.334 46.9721 141.618 49.6631C141.688 49.6989 141.759 49.7356 141.83 49.7731C148.918 53.5222 171.548 83.515 171.548 83.515L203.984 73.7673L207.972 83.515L167.022 99.2612L132.656 67.5235C131.001 65.9951 130.06 63.8509 130.06 61.6053V56.7602Z" fill="#8291E9"/>
<path d="M290.202 271.104C284.228 271.104 279.368 266.272 279.368 260.333C279.368 254.395 284.228 249.563 290.202 249.563C296.177 249.563 301.037 254.395 301.037 260.333C301.037 266.272 296.177 271.104 290.202 271.104ZM290.202 251.063C285.06 251.063 280.876 255.222 280.876 260.333C280.876 265.445 285.06 269.604 290.202 269.604C295.345 269.604 299.529 265.445 299.529 260.333C299.529 255.222 295.345 251.063 290.202 251.063Z" fill="#3F3D56"/>
<path d="M288.031 265.297C287.825 265.297 287.62 265.214 287.472 265.051C287.192 264.744 287.215 264.27 287.525 263.992L291.71 260.224L287.921 256.064C287.641 255.757 287.665 255.283 287.974 255.005C288.283 254.727 288.76 254.751 289.039 255.058L293.335 259.774C293.614 260.081 293.591 260.555 293.281 260.833L288.537 265.103C288.392 265.233 288.211 265.297 288.031 265.297Z" fill="#3F3D56"/>
<path d="M137.489 13.6721C133.955 12.6937 131.888 9.05277 132.872 5.53973C133.856 2.0267 137.519 -0.0280629 141.053 0.95028C144.587 1.92863 147.166 7.9594 143.537 8.49216C139.222 9.12552 141.023 14.6504 137.489 13.6721Z" fill="#2F2E41"/>
</g>
<defs>
<clipPath id="clip0_386_7072">
<rect width="350" height="350" fill="white"/>
</clipPath>
</defs>
</svg>
